<mxfile host="Electron" agent="Mozilla/5.0 (Windows NT 10.0; Win64; x64) AppleWebKit/537.36 (KHTML, like Gecko) draw.io/28.0.6 Chrome/138.0.7204.100 Electron/37.2.3 Safari/537.36" version="28.0.6" pages="4">
  <diagram id="g_ZydY1tBeh2kaEGdzMg" name="Integration Model">
    <mxGraphModel dx="2866" dy="2062" grid="0" gridSize="10" guides="1" tooltips="1" connect="1" arrows="1" fold="1" page="0" pageScale="1" pageWidth="850" pageHeight="1100" math="0" shadow="0">
      <root>
        <mxCell id="0" />
        <mxCell id="1" parent="0" />
        <mxCell id="M31tSyzD6-W9ew2rnR03-1" value="&lt;font style=&quot;font-size: 24px;&quot;&gt;Integration Model&lt;/font&gt; (How Tables are Related)" style="text;html=1;align=center;verticalAlign=middle;whiteSpace=wrap;rounded=0;" parent="1" vertex="1">
          <mxGeometry x="-773" y="-470" width="390" height="30" as="geometry" />
        </mxCell>
        <mxCell id="M31tSyzD6-W9ew2rnR03-2" value="crm_cust_info" style="swimlane;fontStyle=0;childLayout=stackLayout;horizontal=1;startSize=30;horizontalStack=0;resizeParent=1;resizeParentMax=0;resizeLast=0;collapsible=1;marginBottom=0;whiteSpace=wrap;html=1;fillColor=#cce5ff;strokeColor=#36393d;" parent="1" vertex="1">
          <mxGeometry x="200" y="121" width="140" height="98" as="geometry" />
        </mxCell>
        <mxCell id="M31tSyzD6-W9ew2rnR03-3" value="cst_id" style="text;strokeColor=none;fillColor=none;align=left;verticalAlign=middle;spacingLeft=4;spacingRight=4;overflow=hidden;points=[[0,0.5],[1,0.5]];portConstraint=eastwest;rotatable=0;whiteSpace=wrap;html=1;strokeWidth=10;" parent="M31tSyzD6-W9ew2rnR03-2" vertex="1">
          <mxGeometry y="30" width="140" height="34" as="geometry" />
        </mxCell>
        <mxCell id="M31tSyzD6-W9ew2rnR03-23" value="cst_key" style="text;strokeColor=none;fillColor=none;align=left;verticalAlign=middle;spacingLeft=4;spacingRight=4;overflow=hidden;points=[[0,0.5],[1,0.5]];portConstraint=eastwest;rotatable=0;whiteSpace=wrap;html=1;strokeWidth=10;" parent="M31tSyzD6-W9ew2rnR03-2" vertex="1">
          <mxGeometry y="64" width="140" height="34" as="geometry" />
        </mxCell>
        <mxCell id="M31tSyzD6-W9ew2rnR03-6" value="&lt;font style=&quot;font-size: 15px;&quot;&gt;Customer Information&lt;/font&gt;" style="text;strokeColor=none;fillColor=none;align=center;verticalAlign=middle;spacingLeft=4;spacingRight=4;overflow=hidden;points=[[0,0.5],[1,0.5]];portConstraint=eastwest;rotatable=0;whiteSpace=wrap;html=1;" parent="1" vertex="1">
          <mxGeometry x="170" y="84" width="216" height="30" as="geometry" />
        </mxCell>
        <mxCell id="M31tSyzD6-W9ew2rnR03-7" value="crm_cust_info" style="swimlane;fontStyle=0;childLayout=stackLayout;horizontal=1;startSize=30;horizontalStack=0;resizeParent=1;resizeParentMax=0;resizeLast=0;collapsible=1;marginBottom=0;whiteSpace=wrap;html=1;fillColor=#cce5ff;strokeColor=#36393d;" parent="1" vertex="1">
          <mxGeometry x="200" y="-177" width="140" height="60" as="geometry" />
        </mxCell>
        <mxCell id="M31tSyzD6-W9ew2rnR03-8" value="prd_key" style="text;strokeColor=none;fillColor=none;align=left;verticalAlign=middle;spacingLeft=4;spacingRight=4;overflow=hidden;points=[[0,0.5],[1,0.5]];portConstraint=eastwest;rotatable=0;whiteSpace=wrap;html=1;strokeWidth=10;" parent="M31tSyzD6-W9ew2rnR03-7" vertex="1">
          <mxGeometry y="30" width="140" height="30" as="geometry" />
        </mxCell>
        <mxCell id="M31tSyzD6-W9ew2rnR03-9" value="&lt;font style=&quot;font-size: 15px;&quot;&gt;Current &amp;amp; History Product Information&lt;/font&gt;" style="text;strokeColor=none;fillColor=none;align=center;verticalAlign=middle;spacingLeft=4;spacingRight=4;overflow=hidden;points=[[0,0.5],[1,0.5]];portConstraint=eastwest;rotatable=0;whiteSpace=wrap;html=1;" parent="1" vertex="1">
          <mxGeometry x="96" y="-207" width="348" height="30" as="geometry" />
        </mxCell>
        <mxCell id="M31tSyzD6-W9ew2rnR03-10" value="crm_cust_info" style="swimlane;fontStyle=0;childLayout=stackLayout;horizontal=1;startSize=30;horizontalStack=0;resizeParent=1;resizeParentMax=0;resizeLast=0;collapsible=1;marginBottom=0;whiteSpace=wrap;html=1;fillColor=#cce5ff;strokeColor=#36393d;" parent="1" vertex="1">
          <mxGeometry x="-440" y="-79" width="140" height="90" as="geometry" />
        </mxCell>
        <mxCell id="M31tSyzD6-W9ew2rnR03-11" value="prd_key" style="text;strokeColor=none;fillColor=none;align=left;verticalAlign=middle;spacingLeft=4;spacingRight=4;overflow=hidden;points=[[0,0.5],[1,0.5]];portConstraint=eastwest;rotatable=0;whiteSpace=wrap;html=1;strokeWidth=10;" parent="M31tSyzD6-W9ew2rnR03-10" vertex="1">
          <mxGeometry y="30" width="140" height="30" as="geometry" />
        </mxCell>
        <mxCell id="M31tSyzD6-W9ew2rnR03-13" value="cst_id" style="text;strokeColor=none;fillColor=none;align=left;verticalAlign=middle;spacingLeft=4;spacingRight=4;overflow=hidden;points=[[0,0.5],[1,0.5]];portConstraint=eastwest;rotatable=0;whiteSpace=wrap;html=1;strokeWidth=10;" parent="M31tSyzD6-W9ew2rnR03-10" vertex="1">
          <mxGeometry y="60" width="140" height="30" as="geometry" />
        </mxCell>
        <mxCell id="M31tSyzD6-W9ew2rnR03-12" value="&lt;font style=&quot;font-size: 15px;&quot;&gt;Transactional Records about Sales &amp;amp; Orders&lt;/font&gt;" style="text;strokeColor=none;fillColor=none;align=center;verticalAlign=middle;spacingLeft=4;spacingRight=4;overflow=hidden;points=[[0,0.5],[1,0.5]];portConstraint=eastwest;rotatable=0;whiteSpace=wrap;html=1;" parent="1" vertex="1">
          <mxGeometry x="-544" y="-109" width="348" height="30" as="geometry" />
        </mxCell>
        <mxCell id="M31tSyzD6-W9ew2rnR03-14" style="edgeStyle=orthogonalEdgeStyle;rounded=0;orthogonalLoop=1;jettySize=auto;html=1;exitX=1;exitY=0.5;exitDx=0;exitDy=0;fontSize=12;startSize=8;endSize=8;entryX=0.01;entryY=0.147;entryDx=0;entryDy=0;entryPerimeter=0;" parent="1" source="M31tSyzD6-W9ew2rnR03-13" target="M31tSyzD6-W9ew2rnR03-3" edge="1">
          <mxGeometry relative="1" as="geometry">
            <mxPoint x="208.666748046875" y="-67.3333740234375" as="targetPoint" />
          </mxGeometry>
        </mxCell>
        <mxCell id="M31tSyzD6-W9ew2rnR03-15" style="edgeStyle=orthogonalEdgeStyle;rounded=0;orthogonalLoop=1;jettySize=auto;html=1;exitX=1;exitY=0.5;exitDx=0;exitDy=0;entryX=-0.024;entryY=0.744;entryDx=0;entryDy=0;entryPerimeter=0;fontSize=12;startSize=8;endSize=8;" parent="1" source="M31tSyzD6-W9ew2rnR03-10" target="M31tSyzD6-W9ew2rnR03-8" edge="1">
          <mxGeometry relative="1" as="geometry" />
        </mxCell>
        <mxCell id="M31tSyzD6-W9ew2rnR03-16" value="erp_cust_az12" style="swimlane;fontStyle=0;childLayout=stackLayout;horizontal=1;startSize=30;horizontalStack=0;resizeParent=1;resizeParentMax=0;resizeLast=0;collapsible=1;marginBottom=0;whiteSpace=wrap;html=1;fillColor=#ffcc99;strokeColor=#36393d;dashed=1;" parent="1" vertex="1">
          <mxGeometry x="817" y="60" width="140" height="60" as="geometry" />
        </mxCell>
        <mxCell id="M31tSyzD6-W9ew2rnR03-17" value="cid" style="text;strokeColor=none;fillColor=none;align=left;verticalAlign=middle;spacingLeft=4;spacingRight=4;overflow=hidden;points=[[0,0.5],[1,0.5]];portConstraint=eastwest;rotatable=0;whiteSpace=wrap;html=1;strokeWidth=10;dashed=1;" parent="M31tSyzD6-W9ew2rnR03-16" vertex="1">
          <mxGeometry y="30" width="140" height="30" as="geometry" />
        </mxCell>
        <mxCell id="M31tSyzD6-W9ew2rnR03-18" value="&lt;font style=&quot;font-size: 15px;&quot;&gt;Extra Customer Information (Birthdate)&lt;/font&gt;" style="text;align=center;verticalAlign=middle;spacingLeft=4;spacingRight=4;overflow=hidden;points=[[0,0.5],[1,0.5]];portConstraint=eastwest;rotatable=0;whiteSpace=wrap;html=1;" parent="1" vertex="1">
          <mxGeometry x="713" y="30" width="362" height="30" as="geometry" />
        </mxCell>
        <mxCell id="M31tSyzD6-W9ew2rnR03-24" style="edgeStyle=orthogonalEdgeStyle;rounded=0;orthogonalLoop=1;jettySize=auto;html=1;exitX=0;exitY=0.5;exitDx=0;exitDy=0;entryX=0.99;entryY=0.716;entryDx=0;entryDy=0;entryPerimeter=0;fontSize=12;startSize=8;endSize=8;" parent="1" source="M31tSyzD6-W9ew2rnR03-17" target="M31tSyzD6-W9ew2rnR03-23" edge="1">
          <mxGeometry relative="1" as="geometry" />
        </mxCell>
        <mxCell id="M31tSyzD6-W9ew2rnR03-28" value="erp_loc_a101" style="swimlane;fontStyle=0;childLayout=stackLayout;horizontal=1;startSize=30;horizontalStack=0;resizeParent=1;resizeParentMax=0;resizeLast=0;collapsible=1;marginBottom=0;whiteSpace=wrap;html=1;fillColor=#ffcc99;strokeColor=#36393d;" parent="1" vertex="1">
          <mxGeometry x="817" y="294" width="140" height="60" as="geometry" />
        </mxCell>
        <mxCell id="M31tSyzD6-W9ew2rnR03-30" value="&lt;font style=&quot;font-size: 15px;&quot;&gt;Location of Customer (Country)&lt;/font&gt;" style="text;align=center;verticalAlign=middle;spacingLeft=4;spacingRight=4;overflow=hidden;points=[[0,0.5],[1,0.5]];portConstraint=eastwest;rotatable=0;whiteSpace=wrap;html=1;" parent="1" vertex="1">
          <mxGeometry x="713" y="262" width="362" height="30" as="geometry" />
        </mxCell>
        <mxCell id="M31tSyzD6-W9ew2rnR03-31" style="edgeStyle=orthogonalEdgeStyle;rounded=0;orthogonalLoop=1;jettySize=auto;html=1;exitX=0;exitY=0.5;exitDx=0;exitDy=0;entryX=1;entryY=0.5;entryDx=0;entryDy=0;fontSize=12;startSize=8;endSize=8;" parent="1" source="M31tSyzD6-W9ew2rnR03-29" target="M31tSyzD6-W9ew2rnR03-23" edge="1">
          <mxGeometry relative="1" as="geometry" />
        </mxCell>
        <mxCell id="M31tSyzD6-W9ew2rnR03-29" value="cid" style="text;strokeColor=none;fillColor=none;align=left;verticalAlign=middle;spacingLeft=4;spacingRight=4;overflow=hidden;points=[[0,0.5],[1,0.5]];portConstraint=eastwest;rotatable=0;whiteSpace=wrap;html=1;strokeWidth=10;" parent="1" vertex="1">
          <mxGeometry x="817" y="322" width="140" height="30" as="geometry" />
        </mxCell>
        <mxCell id="M31tSyzD6-W9ew2rnR03-32" value="erp_px_cat_g1v2" style="swimlane;fontStyle=0;childLayout=stackLayout;horizontal=1;startSize=30;horizontalStack=0;resizeParent=1;resizeParentMax=0;resizeLast=0;collapsible=1;marginBottom=0;whiteSpace=wrap;html=1;fillColor=#ffcc99;strokeColor=#36393d;" parent="1" vertex="1">
          <mxGeometry x="824" y="-177" width="133" height="60" as="geometry" />
        </mxCell>
        <mxCell id="M31tSyzD6-W9ew2rnR03-33" value="id" style="text;strokeColor=none;fillColor=none;align=left;verticalAlign=middle;spacingLeft=4;spacingRight=4;overflow=hidden;points=[[0,0.5],[1,0.5]];portConstraint=eastwest;rotatable=0;whiteSpace=wrap;html=1;strokeWidth=10;" parent="M31tSyzD6-W9ew2rnR03-32" vertex="1">
          <mxGeometry y="30" width="133" height="30" as="geometry" />
        </mxCell>
        <mxCell id="M31tSyzD6-W9ew2rnR03-34" value="&lt;font style=&quot;font-size: 15px;&quot;&gt;Product Categories&lt;/font&gt;" style="text;align=center;verticalAlign=middle;spacingLeft=4;spacingRight=4;overflow=hidden;points=[[0,0.5],[1,0.5]];portConstraint=eastwest;rotatable=0;whiteSpace=wrap;html=1;" parent="1" vertex="1">
          <mxGeometry x="720" y="-207" width="362" height="30" as="geometry" />
        </mxCell>
        <mxCell id="M31tSyzD6-W9ew2rnR03-35" style="edgeStyle=orthogonalEdgeStyle;rounded=0;orthogonalLoop=1;jettySize=auto;html=1;exitX=0;exitY=0.5;exitDx=0;exitDy=0;entryX=1;entryY=0.5;entryDx=0;entryDy=0;fontSize=12;startSize=8;endSize=8;" parent="1" source="M31tSyzD6-W9ew2rnR03-33" target="M31tSyzD6-W9ew2rnR03-8" edge="1">
          <mxGeometry relative="1" as="geometry" />
        </mxCell>
        <mxCell id="M31tSyzD6-W9ew2rnR03-37" value="&lt;font style=&quot;font-size: 24px;&quot;&gt;CRM&lt;/font&gt;" style="rounded=1;whiteSpace=wrap;html=1;fillColor=#cce5ff;strokeColor=#36393d;" parent="1" vertex="1">
          <mxGeometry x="-101.5" y="-310" width="120" height="60" as="geometry" />
        </mxCell>
        <mxCell id="M31tSyzD6-W9ew2rnR03-41" style="edgeStyle=none;curved=1;rounded=0;orthogonalLoop=1;jettySize=auto;html=1;exitX=1;exitY=0.5;exitDx=0;exitDy=0;fontSize=12;startSize=8;endSize=8;" parent="1" source="M31tSyzD6-W9ew2rnR03-32" target="M31tSyzD6-W9ew2rnR03-32" edge="1">
          <mxGeometry relative="1" as="geometry" />
        </mxCell>
        <mxCell id="M31tSyzD6-W9ew2rnR03-42" value="&lt;font style=&quot;font-size: 24px;&quot;&gt;ERP&lt;/font&gt;" style="rounded=1;whiteSpace=wrap;html=1;fillColor=#ffcc99;strokeColor=#36393d;" parent="1" vertex="1">
          <mxGeometry x="827" y="-317" width="120" height="60" as="geometry" />
        </mxCell>
        <mxCell id="d3O0vWKE3ZXviGVgzYGY-2" value="&lt;font style=&quot;font-size: 15px;&quot;&gt;Product&lt;/font&gt;" style="rounded=0;whiteSpace=wrap;html=1;fillColor=#f8cecc;strokeColor=#b85450;" vertex="1" parent="1">
          <mxGeometry x="200" y="-117" width="140" height="23" as="geometry" />
        </mxCell>
        <mxCell id="d3O0vWKE3ZXviGVgzYGY-3" value="&lt;font style=&quot;font-size: 15px;&quot;&gt;Product&lt;/font&gt;" style="rounded=0;whiteSpace=wrap;html=1;fillColor=#f8cecc;strokeColor=#b85450;" vertex="1" parent="1">
          <mxGeometry x="824" y="-117" width="134" height="23" as="geometry" />
        </mxCell>
        <mxCell id="d3O0vWKE3ZXviGVgzYGY-4" value="&lt;font style=&quot;font-size: 15px;&quot;&gt;Customer&lt;/font&gt;" style="rounded=0;whiteSpace=wrap;html=1;fillColor=#d5e8d4;strokeColor=#82b366;" vertex="1" parent="1">
          <mxGeometry x="200" y="219" width="141" height="23" as="geometry" />
        </mxCell>
        <mxCell id="d3O0vWKE3ZXviGVgzYGY-5" value="&lt;font style=&quot;font-size: 15px;&quot;&gt;Customer&lt;/font&gt;" style="rounded=0;whiteSpace=wrap;html=1;fillColor=#d5e8d4;strokeColor=#82b366;" vertex="1" parent="1">
          <mxGeometry x="817" y="121" width="141" height="23" as="geometry" />
        </mxCell>
        <mxCell id="d3O0vWKE3ZXviGVgzYGY-6" value="&lt;font style=&quot;font-size: 15px;&quot;&gt;Customer&lt;/font&gt;" style="rounded=0;whiteSpace=wrap;html=1;fillColor=#d5e8d4;strokeColor=#82b366;" vertex="1" parent="1">
          <mxGeometry x="816.5" y="356" width="141" height="23" as="geometry" />
        </mxCell>
        <mxCell id="d3O0vWKE3ZXviGVgzYGY-7" value="&lt;font style=&quot;font-size: 15px;&quot;&gt;Sales&lt;/font&gt;" style="rounded=0;whiteSpace=wrap;html=1;fillColor=#e1d5e7;strokeColor=#9673a6;" vertex="1" parent="1">
          <mxGeometry x="-440.5" y="11" width="141" height="23" as="geometry" />
        </mxCell>
        <mxCell id="d3O0vWKE3ZXviGVgzYGY-9" value="" style="rounded=1;whiteSpace=wrap;html=1;fillColor=none;dashed=1;" vertex="1" parent="1">
          <mxGeometry x="-571.5" y="-242" width="1060" height="696" as="geometry" />
        </mxCell>
        <mxCell id="d3O0vWKE3ZXviGVgzYGY-10" value="" style="rounded=1;whiteSpace=wrap;html=1;dashed=1;fillColor=none;" vertex="1" parent="1">
          <mxGeometry x="533" y="-250" width="685" height="707" as="geometry" />
        </mxCell>
      </root>
    </mxGraphModel>
  </diagram>
  <diagram id="iznQj7dhFvHRB5LFIBCj" name="Data Flow Diagram">
    <mxGraphModel dx="2866" dy="1662" grid="0" gridSize="10" guides="1" tooltips="1" connect="1" arrows="1" fold="1" page="0" pageScale="1" pageWidth="850" pageHeight="1100" math="0" shadow="0">
      <root>
        <mxCell id="0" />
        <mxCell id="1" parent="0" />
        <mxCell id="I2h0k8HdAxFix0UmZ_Us-2" value="" style="rounded=0;whiteSpace=wrap;html=1;dashed=1;" vertex="1" parent="1">
          <mxGeometry x="-503.5" y="-148" width="210" height="532" as="geometry" />
        </mxCell>
        <mxCell id="I2h0k8HdAxFix0UmZ_Us-3" value="&lt;font style=&quot;font-size: 18px;&quot;&gt;Sources&lt;/font&gt;" style="rounded=1;whiteSpace=wrap;html=1;" vertex="1" parent="1">
          <mxGeometry x="-458.5" y="-169" width="120" height="37" as="geometry" />
        </mxCell>
        <mxCell id="I2h0k8HdAxFix0UmZ_Us-52" style="edgeStyle=orthogonalEdgeStyle;rounded=0;orthogonalLoop=1;jettySize=auto;html=1;entryX=0;entryY=0.5;entryDx=0;entryDy=0;fontSize=12;startSize=8;endSize=8;" edge="1" parent="1" source="I2h0k8HdAxFix0UmZ_Us-5" target="I2h0k8HdAxFix0UmZ_Us-12">
          <mxGeometry relative="1" as="geometry" />
        </mxCell>
        <mxCell id="I2h0k8HdAxFix0UmZ_Us-53" value="" style="edgeStyle=orthogonalEdgeStyle;rounded=0;orthogonalLoop=1;jettySize=auto;html=1;fontSize=12;startSize=8;endSize=8;entryX=0;entryY=0.25;entryDx=0;entryDy=0;" edge="1" parent="1" source="I2h0k8HdAxFix0UmZ_Us-5" target="I2h0k8HdAxFix0UmZ_Us-14">
          <mxGeometry relative="1" as="geometry" />
        </mxCell>
        <mxCell id="I2h0k8HdAxFix0UmZ_Us-5" value="" style="image;aspect=fixed;html=1;points=[];align=center;fontSize=12;image=img/lib/azure2/general/Folder_Blank.svg;" vertex="1" parent="1">
          <mxGeometry x="-437" y="-46" width="69" height="56" as="geometry" />
        </mxCell>
        <mxCell id="I2h0k8HdAxFix0UmZ_Us-54" value="" style="edgeStyle=orthogonalEdgeStyle;rounded=0;orthogonalLoop=1;jettySize=auto;html=1;fontSize=12;startSize=8;endSize=8;entryX=0;entryY=0.5;entryDx=0;entryDy=0;" edge="1" parent="1" source="I2h0k8HdAxFix0UmZ_Us-6" target="I2h0k8HdAxFix0UmZ_Us-15">
          <mxGeometry relative="1" as="geometry" />
        </mxCell>
        <mxCell id="I2h0k8HdAxFix0UmZ_Us-55" value="" style="edgeStyle=none;curved=1;rounded=0;orthogonalLoop=1;jettySize=auto;html=1;fontSize=12;startSize=8;endSize=8;" edge="1" parent="1" source="I2h0k8HdAxFix0UmZ_Us-6" target="I2h0k8HdAxFix0UmZ_Us-16">
          <mxGeometry relative="1" as="geometry" />
        </mxCell>
        <mxCell id="I2h0k8HdAxFix0UmZ_Us-6" value="" style="image;aspect=fixed;html=1;points=[];align=center;fontSize=12;image=img/lib/azure2/general/Folder_Blank.svg;" vertex="1" parent="1">
          <mxGeometry x="-433" y="132" width="69" height="56.00000000000001" as="geometry" />
        </mxCell>
        <mxCell id="I2h0k8HdAxFix0UmZ_Us-8" value="" style="rounded=1;whiteSpace=wrap;html=1;fillColor=none;" vertex="1" parent="1">
          <mxGeometry x="-229" y="-136" width="241" height="513" as="geometry" />
        </mxCell>
        <mxCell id="I2h0k8HdAxFix0UmZ_Us-9" value="Bronze Layer&amp;nbsp;" style="rounded=1;whiteSpace=wrap;html=1;fillColor=#ffe6cc;strokeColor=#d79b00;" vertex="1" parent="1">
          <mxGeometry x="-166" y="-178" width="120" height="39" as="geometry" />
        </mxCell>
        <mxCell id="I2h0k8HdAxFix0UmZ_Us-10" value="CRM" style="text;html=1;align=center;verticalAlign=middle;whiteSpace=wrap;rounded=0;" vertex="1" parent="1">
          <mxGeometry x="-428.5" y="2" width="60" height="30" as="geometry" />
        </mxCell>
        <mxCell id="I2h0k8HdAxFix0UmZ_Us-11" value="ERP" style="text;html=1;align=center;verticalAlign=middle;whiteSpace=wrap;rounded=0;" vertex="1" parent="1">
          <mxGeometry x="-428" y="183" width="60" height="30" as="geometry" />
        </mxCell>
        <mxCell id="I2h0k8HdAxFix0UmZ_Us-12" value="crm_sales_details" style="rounded=1;whiteSpace=wrap;html=1;fillColor=#ffe6cc;strokeColor=#d79b00;" vertex="1" parent="1">
          <mxGeometry x="-177.5" y="-81" width="138" height="35" as="geometry" />
        </mxCell>
        <mxCell id="I2h0k8HdAxFix0UmZ_Us-13" value="crm_cust_info" style="rounded=1;whiteSpace=wrap;html=1;fillColor=#ffe6cc;strokeColor=#d79b00;" vertex="1" parent="1">
          <mxGeometry x="-177.5" y="-35.5" width="138" height="35" as="geometry" />
        </mxCell>
        <mxCell id="I2h0k8HdAxFix0UmZ_Us-14" value="crm_prd_info" style="rounded=1;whiteSpace=wrap;html=1;fillColor=#ffe6cc;strokeColor=#d79b00;" vertex="1" parent="1">
          <mxGeometry x="-177.5" y="10" width="138" height="35" as="geometry" />
        </mxCell>
        <mxCell id="I2h0k8HdAxFix0UmZ_Us-15" value="erp_cust_az12" style="rounded=1;whiteSpace=wrap;html=1;fillColor=#ffe6cc;strokeColor=#d79b00;" vertex="1" parent="1">
          <mxGeometry x="-177.5" y="97" width="138" height="35" as="geometry" />
        </mxCell>
        <mxCell id="I2h0k8HdAxFix0UmZ_Us-16" value="erp_loc_a101" style="rounded=1;whiteSpace=wrap;html=1;fillColor=#ffe6cc;strokeColor=#d79b00;" vertex="1" parent="1">
          <mxGeometry x="-177.5" y="142.5" width="138" height="35" as="geometry" />
        </mxCell>
        <mxCell id="I2h0k8HdAxFix0UmZ_Us-17" value="erp_px_cat_g1v2" style="rounded=1;whiteSpace=wrap;html=1;fillColor=#ffe6cc;strokeColor=#d79b00;" vertex="1" parent="1">
          <mxGeometry x="-177.5" y="188" width="138" height="35" as="geometry" />
        </mxCell>
        <mxCell id="I2h0k8HdAxFix0UmZ_Us-26" value="" style="rounded=1;whiteSpace=wrap;html=1;gradientColor=none;fillColor=none;" vertex="1" parent="1">
          <mxGeometry x="127" y="-136" width="241" height="513" as="geometry" />
        </mxCell>
        <mxCell id="26BitJDpOAejZSHpHFNi-1" value="" style="rounded=1;whiteSpace=wrap;html=1;gradientColor=none;fillColor=default;" vertex="1" parent="1">
          <mxGeometry x="466.5" y="-138.5" width="241" height="513" as="geometry" />
        </mxCell>
        <mxCell id="I2h0k8HdAxFix0UmZ_Us-27" value="Silver Layer&amp;nbsp;" style="rounded=1;whiteSpace=wrap;html=1;fillColor=#f5f5f5;strokeColor=#666666;fontColor=#333333;" vertex="1" parent="1">
          <mxGeometry x="190" y="-178" width="120" height="39" as="geometry" />
        </mxCell>
        <mxCell id="26BitJDpOAejZSHpHFNi-2" value="Gold Layer" style="rounded=1;whiteSpace=wrap;html=1;fillColor=#fff2cc;strokeColor=#d6b656;" vertex="1" parent="1">
          <mxGeometry x="527" y="-178" width="120" height="39" as="geometry" />
        </mxCell>
        <mxCell id="I2h0k8HdAxFix0UmZ_Us-28" value="crm_sales_details" style="rounded=1;whiteSpace=wrap;html=1;fillColor=#f5f5f5;strokeColor=#666666;fontColor=#333333;" vertex="1" parent="1">
          <mxGeometry x="178.5" y="-81" width="138" height="35" as="geometry" />
        </mxCell>
        <mxCell id="26BitJDpOAejZSHpHFNi-3" value="fact_sales" style="rounded=1;whiteSpace=wrap;html=1;fillColor=#fff2cc;strokeColor=#d6b656;" vertex="1" parent="1">
          <mxGeometry x="518" y="-64" width="138" height="35" as="geometry" />
        </mxCell>
        <mxCell id="I2h0k8HdAxFix0UmZ_Us-29" value="crm_cust_info" style="rounded=1;whiteSpace=wrap;html=1;fillColor=#f5f5f5;strokeColor=#666666;fontColor=#333333;" vertex="1" parent="1">
          <mxGeometry x="178.5" y="-35.5" width="138" height="35" as="geometry" />
        </mxCell>
        <mxCell id="26BitJDpOAejZSHpHFNi-4" value="dim_customers" style="rounded=1;whiteSpace=wrap;html=1;fillColor=#fff2cc;strokeColor=#d6b656;" vertex="1" parent="1">
          <mxGeometry x="518" y="42" width="138" height="35" as="geometry" />
        </mxCell>
        <mxCell id="I2h0k8HdAxFix0UmZ_Us-30" value="crm_prd_info" style="rounded=1;whiteSpace=wrap;html=1;fillColor=#f5f5f5;strokeColor=#666666;fontColor=#333333;" vertex="1" parent="1">
          <mxGeometry x="178.5" y="10" width="138" height="35" as="geometry" />
        </mxCell>
        <mxCell id="26BitJDpOAejZSHpHFNi-5" value="dim_products" style="rounded=1;whiteSpace=wrap;html=1;fillColor=#fff2cc;strokeColor=#d6b656;" vertex="1" parent="1">
          <mxGeometry x="518" y="148" width="138" height="35" as="geometry" />
        </mxCell>
        <mxCell id="I2h0k8HdAxFix0UmZ_Us-31" value="erp_cust_az12" style="rounded=1;whiteSpace=wrap;html=1;fillColor=#f5f5f5;strokeColor=#666666;fontColor=#333333;" vertex="1" parent="1">
          <mxGeometry x="181" y="97" width="138" height="35" as="geometry" />
        </mxCell>
        <mxCell id="I2h0k8HdAxFix0UmZ_Us-32" value="erp_loc_a101" style="rounded=1;whiteSpace=wrap;html=1;fillColor=#f5f5f5;strokeColor=#666666;fontColor=#333333;" vertex="1" parent="1">
          <mxGeometry x="181" y="146" width="138" height="35" as="geometry" />
        </mxCell>
        <mxCell id="I2h0k8HdAxFix0UmZ_Us-33" value="erp_px_cat_g1v2" style="rounded=1;whiteSpace=wrap;html=1;fillColor=#f5f5f5;strokeColor=#666666;fontColor=#333333;" vertex="1" parent="1">
          <mxGeometry x="181" y="193" width="138" height="35" as="geometry" />
        </mxCell>
        <mxCell id="I2h0k8HdAxFix0UmZ_Us-49" value="" style="endArrow=classic;html=1;rounded=0;fontSize=12;startSize=8;endSize=8;curved=1;entryX=0;entryY=0.5;entryDx=0;entryDy=0;" edge="1" parent="1" target="I2h0k8HdAxFix0UmZ_Us-13">
          <mxGeometry width="50" height="50" relative="1" as="geometry">
            <mxPoint x="-368.5" y="-16" as="sourcePoint" />
            <mxPoint x="-318.5" y="-66" as="targetPoint" />
          </mxGeometry>
        </mxCell>
        <mxCell id="I2h0k8HdAxFix0UmZ_Us-57" value="" style="endArrow=classic;html=1;rounded=0;fontSize=12;startSize=8;endSize=8;entryX=0;entryY=0.75;entryDx=0;entryDy=0;edgeStyle=orthogonalEdgeStyle;" edge="1" parent="1" target="I2h0k8HdAxFix0UmZ_Us-17">
          <mxGeometry width="50" height="50" relative="1" as="geometry">
            <mxPoint x="-364" y="156" as="sourcePoint" />
            <mxPoint x="-314" y="106" as="targetPoint" />
          </mxGeometry>
        </mxCell>
        <mxCell id="I2h0k8HdAxFix0UmZ_Us-58" value="" style="endArrow=classic;html=1;rounded=0;fontSize=12;startSize=8;endSize=8;entryX=0;entryY=0.5;entryDx=0;entryDy=0;" edge="1" parent="1" target="I2h0k8HdAxFix0UmZ_Us-28">
          <mxGeometry width="50" height="50" relative="1" as="geometry">
            <mxPoint x="-38" y="-64" as="sourcePoint" />
            <mxPoint x="12" y="-114" as="targetPoint" />
          </mxGeometry>
        </mxCell>
        <mxCell id="I2h0k8HdAxFix0UmZ_Us-59" value="" style="endArrow=classic;html=1;rounded=0;fontSize=12;entryX=0;entryY=0.5;entryDx=0;entryDy=0;" edge="1" parent="1" target="I2h0k8HdAxFix0UmZ_Us-29">
          <mxGeometry width="50" height="50" relative="1" as="geometry">
            <mxPoint x="-42" y="-20" as="sourcePoint" />
            <mxPoint x="8" y="-70" as="targetPoint" />
          </mxGeometry>
        </mxCell>
        <mxCell id="I2h0k8HdAxFix0UmZ_Us-60" value="" style="endArrow=classic;html=1;rounded=0;fontSize=12;startSize=8;endSize=8;entryX=0;entryY=0.5;entryDx=0;entryDy=0;exitX=1;exitY=0.5;exitDx=0;exitDy=0;" edge="1" parent="1" source="I2h0k8HdAxFix0UmZ_Us-14" target="I2h0k8HdAxFix0UmZ_Us-30">
          <mxGeometry width="50" height="50" relative="1" as="geometry">
            <mxPoint x="-39.5" y="34" as="sourcePoint" />
            <mxPoint x="10.5" y="-16" as="targetPoint" />
          </mxGeometry>
        </mxCell>
        <mxCell id="I2h0k8HdAxFix0UmZ_Us-61" value="" style="endArrow=classic;html=1;rounded=0;fontSize=12;startSize=8;endSize=8;curved=1;" edge="1" parent="1" target="I2h0k8HdAxFix0UmZ_Us-31">
          <mxGeometry width="50" height="50" relative="1" as="geometry">
            <mxPoint x="-39.5" y="112" as="sourcePoint" />
            <mxPoint x="10.5" y="62" as="targetPoint" />
          </mxGeometry>
        </mxCell>
        <mxCell id="I2h0k8HdAxFix0UmZ_Us-62" value="" style="endArrow=classic;html=1;rounded=0;fontSize=12;startSize=8;endSize=8;curved=1;" edge="1" parent="1" target="I2h0k8HdAxFix0UmZ_Us-32">
          <mxGeometry width="50" height="50" relative="1" as="geometry">
            <mxPoint x="-38" y="162" as="sourcePoint" />
            <mxPoint x="12" y="112" as="targetPoint" />
          </mxGeometry>
        </mxCell>
        <mxCell id="I2h0k8HdAxFix0UmZ_Us-63" value="" style="endArrow=classic;html=1;rounded=0;fontSize=12;startSize=8;endSize=8;curved=1;entryX=0;entryY=0.5;entryDx=0;entryDy=0;" edge="1" parent="1" target="I2h0k8HdAxFix0UmZ_Us-33">
          <mxGeometry width="50" height="50" relative="1" as="geometry">
            <mxPoint x="-38" y="210" as="sourcePoint" />
            <mxPoint x="12" y="160" as="targetPoint" />
          </mxGeometry>
        </mxCell>
        <mxCell id="26BitJDpOAejZSHpHFNi-9" value="" style="endArrow=classic;html=1;rounded=0;fontSize=12;startSize=8;endSize=8;curved=1;exitX=1;exitY=0.5;exitDx=0;exitDy=0;entryX=0;entryY=0.75;entryDx=0;entryDy=0;" edge="1" parent="1" source="I2h0k8HdAxFix0UmZ_Us-28" target="26BitJDpOAejZSHpHFNi-3">
          <mxGeometry width="50" height="50" relative="1" as="geometry">
            <mxPoint x="138" y="290" as="sourcePoint" />
            <mxPoint x="188" y="240" as="targetPoint" />
          </mxGeometry>
        </mxCell>
        <mxCell id="26BitJDpOAejZSHpHFNi-10" value="" style="endArrow=classic;html=1;rounded=0;fontSize=12;startSize=8;endSize=8;curved=1;" edge="1" parent="1" source="I2h0k8HdAxFix0UmZ_Us-29" target="26BitJDpOAejZSHpHFNi-4">
          <mxGeometry width="50" height="50" relative="1" as="geometry">
            <mxPoint x="138" y="290" as="sourcePoint" />
            <mxPoint x="188" y="240" as="targetPoint" />
          </mxGeometry>
        </mxCell>
        <mxCell id="26BitJDpOAejZSHpHFNi-11" value="" style="endArrow=classic;html=1;rounded=0;fontSize=12;startSize=8;endSize=8;curved=1;exitX=0.75;exitY=1;exitDx=0;exitDy=0;entryX=0;entryY=0.75;entryDx=0;entryDy=0;" edge="1" parent="1" source="I2h0k8HdAxFix0UmZ_Us-30" target="26BitJDpOAejZSHpHFNi-5">
          <mxGeometry width="50" height="50" relative="1" as="geometry">
            <mxPoint x="138" y="290" as="sourcePoint" />
            <mxPoint x="188" y="240" as="targetPoint" />
          </mxGeometry>
        </mxCell>
        <mxCell id="26BitJDpOAejZSHpHFNi-12" value="" style="endArrow=classic;html=1;rounded=0;fontSize=12;startSize=8;endSize=8;curved=1;exitX=0.819;exitY=1.029;exitDx=0;exitDy=0;exitPerimeter=0;" edge="1" parent="1" source="I2h0k8HdAxFix0UmZ_Us-31" target="26BitJDpOAejZSHpHFNi-4">
          <mxGeometry width="50" height="50" relative="1" as="geometry">
            <mxPoint x="138" y="290" as="sourcePoint" />
            <mxPoint x="188" y="240" as="targetPoint" />
          </mxGeometry>
        </mxCell>
        <mxCell id="26BitJDpOAejZSHpHFNi-13" value="" style="endArrow=classic;html=1;rounded=0;fontSize=12;startSize=8;endSize=8;curved=1;" edge="1" parent="1" source="I2h0k8HdAxFix0UmZ_Us-32" target="26BitJDpOAejZSHpHFNi-4">
          <mxGeometry width="50" height="50" relative="1" as="geometry">
            <mxPoint x="138" y="290" as="sourcePoint" />
            <mxPoint x="188" y="240" as="targetPoint" />
          </mxGeometry>
        </mxCell>
        <mxCell id="26BitJDpOAejZSHpHFNi-14" value="" style="endArrow=classic;html=1;rounded=0;fontSize=12;startSize=8;endSize=8;curved=1;exitX=0.915;exitY=0.886;exitDx=0;exitDy=0;exitPerimeter=0;entryX=0.06;entryY=0.914;entryDx=0;entryDy=0;entryPerimeter=0;" edge="1" parent="1" source="I2h0k8HdAxFix0UmZ_Us-33" target="26BitJDpOAejZSHpHFNi-5">
          <mxGeometry width="50" height="50" relative="1" as="geometry">
            <mxPoint x="138" y="290" as="sourcePoint" />
            <mxPoint x="188" y="240" as="targetPoint" />
          </mxGeometry>
        </mxCell>
      </root>
    </mxGraphModel>
  </diagram>
  <diagram name="Data Architecture" id="HetnDyDK2kteIjwW1tf3">
    <mxGraphModel dx="2466" dy="1262" grid="1" gridSize="10" guides="1" tooltips="1" connect="1" arrows="1" fold="1" page="0" pageScale="1" pageWidth="850" pageHeight="1100" background="#ffffff" math="0" shadow="0">
      <root>
        <mxCell id="0" />
        <mxCell id="1" parent="0" />
        <mxCell id="mXSxwZVGmxwPPerrySNK-1" value="" style="rounded=0;whiteSpace=wrap;html=1;fillColor=none;strokeColor=#7EA6E0;dashed=1;dashPattern=12 12;strokeWidth=2;" parent="1" vertex="1">
          <mxGeometry x="-370" y="330" width="200" height="710" as="geometry" />
        </mxCell>
        <mxCell id="mXSxwZVGmxwPPerrySNK-5" value="&lt;font style=&quot;color: rgb(0, 0, 0);&quot;&gt;Sources&lt;/font&gt;" style="rounded=1;whiteSpace=wrap;html=1;fillColor=none;fontSize=24;strokeColor=none;" parent="1" vertex="1">
          <mxGeometry x="-320.5" y="280" width="120" height="60" as="geometry" />
        </mxCell>
        <mxCell id="mXSxwZVGmxwPPerrySNK-7" value="" style="rounded=0;whiteSpace=wrap;html=1;fillColor=none;strokeColor=#7EA6E0;dashed=1;dashPattern=8 8;strokeWidth=2;" parent="1" vertex="1">
          <mxGeometry x="-80" y="330" width="780" height="710" as="geometry" />
        </mxCell>
        <mxCell id="mXSxwZVGmxwPPerrySNK-8" value="tableau" style="rounded=1;whiteSpace=wrap;html=1;fillColor=none;fontSize=24;strokeColor=none;" parent="1" vertex="1">
          <mxGeometry x="250" y="270" width="120" height="60" as="geometry" />
        </mxCell>
        <mxCell id="mXSxwZVGmxwPPerrySNK-9" value="" style="rounded=0;whiteSpace=wrap;html=1;fillColor=none;strokeColor=#7EA6E0;dashed=1;dashPattern=8 8;strokeWidth=2;" parent="1" vertex="1">
          <mxGeometry x="810" y="330" width="160" height="710" as="geometry" />
        </mxCell>
        <mxCell id="mXSxwZVGmxwPPerrySNK-10" value="&lt;font color=&quot;#000000&quot;&gt;Consume&lt;/font&gt;" style="rounded=1;whiteSpace=wrap;html=1;fillColor=none;fontSize=24;strokeColor=none;" parent="1" vertex="1">
          <mxGeometry x="820" y="280" width="120" height="60" as="geometry" />
        </mxCell>
        <mxCell id="mXSxwZVGmxwPPerrySNK-11" value="&lt;font style=&quot;color: rgb(0, 0, 0);&quot;&gt;Bronze Layer&lt;/font&gt;" style="rounded=0;whiteSpace=wrap;html=1;fillColor=#ffe6cc;dashed=1;dashPattern=12 12;strokeColor=#d79b00;fontSize=20;" parent="1" vertex="1">
          <mxGeometry x="-20" y="350" width="180" height="30" as="geometry" />
        </mxCell>
        <mxCell id="mXSxwZVGmxwPPerrySNK-12" value="" style="rounded=0;whiteSpace=wrap;html=1;fillColor=none;strokeColor=#FFD966;perimeterSpacing=2;strokeWidth=3;" parent="1" vertex="1">
          <mxGeometry x="-20" y="400" width="180" height="600" as="geometry" />
        </mxCell>
        <mxCell id="mXSxwZVGmxwPPerrySNK-13" value="" style="rounded=0;whiteSpace=wrap;html=1;fillColor=none;strokeColor=#808080;perimeterSpacing=2;strokeWidth=3;" parent="1" vertex="1">
          <mxGeometry x="220" y="400" width="180" height="600" as="geometry" />
        </mxCell>
        <mxCell id="mXSxwZVGmxwPPerrySNK-14" value="&lt;font style=&quot;color: rgb(0, 0, 0);&quot;&gt;Silver Layer&lt;/font&gt;" style="rounded=0;whiteSpace=wrap;html=1;fillColor=#f5f5f5;strokeColor=#333333;fontSize=20;fontColor=#333333;" parent="1" vertex="1">
          <mxGeometry x="220" y="350" width="180" height="30" as="geometry" />
        </mxCell>
        <mxCell id="mXSxwZVGmxwPPerrySNK-15" value="" style="rounded=0;whiteSpace=wrap;html=1;fillColor=none;strokeColor=#FFDD16;perimeterSpacing=2;strokeWidth=3;" parent="1" vertex="1">
          <mxGeometry x="480" y="400" width="180" height="600" as="geometry" />
        </mxCell>
        <mxCell id="mXSxwZVGmxwPPerrySNK-16" value="&lt;font style=&quot;color: rgb(0, 0, 0);&quot;&gt;Gold Layer&lt;/font&gt;" style="rounded=0;whiteSpace=wrap;html=1;fillColor=#FFDD16;strokeColor=#FFDD16;fontSize=20;fontColor=#333333;" parent="1" vertex="1">
          <mxGeometry x="480" y="350" width="180" height="30" as="geometry" />
        </mxCell>
        <mxCell id="mXSxwZVGmxwPPerrySNK-17" value="&lt;span style=&quot;background-color: rgb(255, 255, 255);&quot;&gt;&lt;font style=&quot;color: rgb(0, 0, 0);&quot;&gt;CRM&lt;/font&gt;&lt;/span&gt;" style="image;aspect=fixed;html=1;points=[];align=center;fontSize=12;image=img/lib/azure2/general/Folder_Blank.svg;labelBackgroundColor=#FFFFFF;" parent="1" vertex="1">
          <mxGeometry x="-304.5" y="550" width="69" height="56.00000000000001" as="geometry" />
        </mxCell>
        <mxCell id="mXSxwZVGmxwPPerrySNK-18" value="" style="image;aspect=fixed;html=1;points=[];align=center;fontSize=12;image=img/lib/azure2/general/File.svg;" parent="1" vertex="1">
          <mxGeometry x="-250.5" y="590" width="32.46" height="40" as="geometry" />
        </mxCell>
        <mxCell id="oVZN92Ko1cRPuxDCfX_i-2" value="&lt;span style=&quot;background-color: rgb(255, 255, 255);&quot;&gt;&lt;font style=&quot;color: rgb(0, 0, 0);&quot;&gt;ERP&lt;/font&gt;&lt;/span&gt;" style="image;aspect=fixed;html=1;points=[];align=center;fontSize=12;image=img/lib/azure2/general/Folder_Blank.svg;labelBackgroundColor=#FFFFFF;" parent="1" vertex="1">
          <mxGeometry x="-304.5" y="700" width="69" height="56.00000000000001" as="geometry" />
        </mxCell>
        <mxCell id="oVZN92Ko1cRPuxDCfX_i-3" value="" style="image;aspect=fixed;html=1;points=[];align=center;fontSize=12;image=img/lib/azure2/general/File.svg;" parent="1" vertex="1">
          <mxGeometry x="-250.5" y="740" width="32.46" height="40" as="geometry" />
        </mxCell>
        <mxCell id="oVZN92Ko1cRPuxDCfX_i-5" value="" style="shape=link;html=1;rounded=0;" parent="1" source="mXSxwZVGmxwPPerrySNK-1" edge="1">
          <mxGeometry width="100" relative="1" as="geometry">
            <mxPoint x="-270.5" y="880" as="sourcePoint" />
            <mxPoint x="-170.5" y="880" as="targetPoint" />
          </mxGeometry>
        </mxCell>
        <mxCell id="oVZN92Ko1cRPuxDCfX_i-13" value="" style="endArrow=none;html=1;rounded=0;strokeColor=#808080;strokeWidth=2;" parent="1" edge="1">
          <mxGeometry width="50" height="50" relative="1" as="geometry">
            <mxPoint x="-335" y="800" as="sourcePoint" />
            <mxPoint x="-205" y="800" as="targetPoint" />
          </mxGeometry>
        </mxCell>
        <mxCell id="oVZN92Ko1cRPuxDCfX_i-17" value="&lt;font color=&quot;#000000&quot;&gt;&lt;b style=&quot;&quot;&gt;Object Type&lt;/b&gt;: CSV Files&lt;/font&gt;&lt;div&gt;&lt;font color=&quot;#000000&quot;&gt;&lt;b&gt;&lt;br&gt;&lt;/b&gt;&lt;/font&gt;&lt;div&gt;&lt;font color=&quot;#000000&quot;&gt;&lt;b style=&quot;&quot;&gt;Interface&lt;/b&gt;: Files in Folder&lt;/font&gt;&lt;/div&gt;&lt;/div&gt;" style="text;html=1;align=center;verticalAlign=middle;whiteSpace=wrap;rounded=0;" parent="1" vertex="1">
          <mxGeometry x="-340.5" y="860" width="140" height="30" as="geometry" />
        </mxCell>
        <mxCell id="oVZN92Ko1cRPuxDCfX_i-18" value="" style="html=1;verticalLabelPosition=bottom;align=center;labelBackgroundColor=#ffffff;verticalAlign=top;strokeWidth=2;strokeColor=#b46504;shadow=0;dashed=0;shape=mxgraph.ios7.icons.data;fillColor=#fad7ac;" parent="1" vertex="1">
          <mxGeometry x="20" y="440" width="100" height="120" as="geometry" />
        </mxCell>
        <mxCell id="oVZN92Ko1cRPuxDCfX_i-19" value="" style="html=1;verticalLabelPosition=bottom;align=center;labelBackgroundColor=#ffffff;verticalAlign=top;strokeWidth=2;strokeColor=#666666;shadow=0;dashed=0;shape=mxgraph.ios7.icons.data;fillColor=#f5f5f5;gradientColor=#b3b3b3;" parent="1" vertex="1">
          <mxGeometry x="260" y="440" width="100" height="120" as="geometry" />
        </mxCell>
        <mxCell id="oVZN92Ko1cRPuxDCfX_i-20" value="" style="html=1;verticalLabelPosition=bottom;align=center;labelBackgroundColor=#ffffff;verticalAlign=top;strokeWidth=2;strokeColor=#d6b656;shadow=0;dashed=0;shape=mxgraph.ios7.icons.data;fillColor=#fff2cc;gradientColor=#ffd966;" parent="1" vertex="1">
          <mxGeometry x="520" y="440" width="100" height="120" as="geometry" />
        </mxCell>
        <mxCell id="oVZN92Ko1cRPuxDCfX_i-21" value="" style="shape=singleArrow;whiteSpace=wrap;html=1;fillColor=#dae8fc;strokeColor=#6c8ebf;gradientColor=#7ea6e0;" parent="1" vertex="1">
          <mxGeometry x="-160" y="480" width="100" height="60" as="geometry" />
        </mxCell>
        <mxCell id="oVZN92Ko1cRPuxDCfX_i-22" value="" style="shape=singleArrow;whiteSpace=wrap;html=1;fillColor=#dae8fc;strokeColor=#6c8ebf;gradientColor=#7ea6e0;" parent="1" vertex="1">
          <mxGeometry x="150" y="480" width="100" height="60" as="geometry" />
        </mxCell>
        <mxCell id="oVZN92Ko1cRPuxDCfX_i-23" value="" style="shape=singleArrow;whiteSpace=wrap;html=1;fillColor=#dae8fc;strokeColor=#6c8ebf;gradientColor=#7ea6e0;" parent="1" vertex="1">
          <mxGeometry x="410" y="480" width="100" height="60" as="geometry" />
        </mxCell>
        <mxCell id="oVZN92Ko1cRPuxDCfX_i-25" value="" style="shape=singleArrow;whiteSpace=wrap;html=1;fillColor=#dae8fc;strokeColor=#6c8ebf;gradientColor=#7ea6e0;" parent="1" vertex="1">
          <mxGeometry x="700" y="480" width="100" height="60" as="geometry" />
        </mxCell>
        <mxCell id="oVZN92Ko1cRPuxDCfX_i-26" value="&lt;font style=&quot;color: rgb(0, 0, 0); font-size: 20px;&quot;&gt;Raw Data&lt;/font&gt;" style="text;html=1;align=center;verticalAlign=middle;whiteSpace=wrap;rounded=0;" parent="1" vertex="1">
          <mxGeometry x="-10" y="570" width="160" height="30" as="geometry" />
        </mxCell>
        <mxCell id="oVZN92Ko1cRPuxDCfX_i-27" value="&lt;font style=&quot;font-size: 20px;&quot; color=&quot;#000000&quot;&gt;Cleaned, Standarized, Data&lt;/font&gt;" style="text;html=1;align=center;verticalAlign=middle;whiteSpace=wrap;rounded=0;" parent="1" vertex="1">
          <mxGeometry x="230" y="580" width="160" height="30" as="geometry" />
        </mxCell>
        <mxCell id="oVZN92Ko1cRPuxDCfX_i-28" value="&lt;font style=&quot;font-size: 20px;&quot; color=&quot;#000000&quot;&gt;Business-Ready Data&lt;/font&gt;&lt;div&gt;&lt;font color=&quot;#000000&quot;&gt;&lt;br&gt;&lt;/font&gt;&lt;/div&gt;" style="text;html=1;align=center;verticalAlign=middle;whiteSpace=wrap;rounded=0;" parent="1" vertex="1">
          <mxGeometry x="490" y="580" width="160" height="30" as="geometry" />
        </mxCell>
        <mxCell id="oVZN92Ko1cRPuxDCfX_i-30" value="" style="endArrow=none;html=1;rounded=0;strokeColor=#d6b656;strokeWidth=2;fillColor=#fff2cc;gradientColor=#ffd966;" parent="1" edge="1">
          <mxGeometry width="50" height="50" relative="1" as="geometry">
            <mxPoint x="5" y="650" as="sourcePoint" />
            <mxPoint x="135" y="650" as="targetPoint" />
          </mxGeometry>
        </mxCell>
        <mxCell id="oVZN92Ko1cRPuxDCfX_i-31" value="" style="endArrow=none;html=1;rounded=0;strokeColor=#666666;strokeWidth=2;fillColor=#f5f5f5;gradientColor=#b3b3b3;" parent="1" edge="1">
          <mxGeometry width="50" height="50" relative="1" as="geometry">
            <mxPoint x="245" y="650" as="sourcePoint" />
            <mxPoint x="375" y="650" as="targetPoint" />
          </mxGeometry>
        </mxCell>
        <mxCell id="oVZN92Ko1cRPuxDCfX_i-41" value="" style="endArrow=none;html=1;rounded=0;strokeColor=#B09500;strokeWidth=2;fillColor=#e3c800;" parent="1" edge="1">
          <mxGeometry width="50" height="50" relative="1" as="geometry">
            <mxPoint x="505" y="649.5" as="sourcePoint" />
            <mxPoint x="635" y="649.5" as="targetPoint" />
          </mxGeometry>
        </mxCell>
        <mxCell id="oVZN92Ko1cRPuxDCfX_i-42" value="&lt;font style=&quot;font-size: 14px;&quot; color=&quot;#000000&quot;&gt;&lt;b style=&quot;&quot;&gt;Object Type&lt;/b&gt;: Tables&lt;/font&gt;&lt;div&gt;&lt;font style=&quot;font-size: 14px;&quot; color=&quot;#000000&quot;&gt;&lt;b&gt;&lt;br&gt;&lt;/b&gt;&lt;/font&gt;&lt;div&gt;&lt;font style=&quot;font-size: 14px;&quot; color=&quot;#000000&quot;&gt;&lt;b&gt;Load:&amp;nbsp;&lt;/b&gt;&lt;/font&gt;&lt;/div&gt;&lt;div&gt;&lt;span style=&quot;background-color: transparent; color: rgb(0, 0, 0); font-size: 14px;&quot;&gt;Batch Processig&lt;/span&gt;&lt;/div&gt;&lt;div&gt;&lt;span style=&quot;color: rgb(0, 0, 0); font-size: 14px; background-color: transparent;&quot;&gt;Full Load&amp;nbsp; (Trunc &amp;amp; Insert)&lt;/span&gt;&lt;/div&gt;&lt;div&gt;&lt;span style=&quot;color: rgb(0, 0, 0); font-size: 14px; background-color: transparent;&quot;&gt;No Transformations&lt;/span&gt;&lt;/div&gt;&lt;div&gt;&lt;span style=&quot;color: rgb(0, 0, 0); font-size: 14px; background-color: transparent;&quot;&gt;Data Model: None (As-is)&lt;/span&gt;&lt;/div&gt;&lt;div&gt;&lt;font color=&quot;#000000&quot;&gt;&amp;nbsp;&lt;/font&gt;&lt;/div&gt;&lt;/div&gt;" style="text;html=1;align=left;verticalAlign=middle;whiteSpace=wrap;rounded=0;" parent="1" vertex="1">
          <mxGeometry x="-20" y="660" width="180" height="150" as="geometry" />
        </mxCell>
        <mxCell id="oVZN92Ko1cRPuxDCfX_i-43" value="&lt;font style=&quot;font-size: 14px;&quot; color=&quot;#000000&quot;&gt;&lt;b style=&quot;&quot;&gt;Object Type&lt;/b&gt;: Tables&lt;/font&gt;&lt;div&gt;&lt;font style=&quot;font-size: 14px;&quot; color=&quot;#000000&quot;&gt;&lt;b&gt;&lt;br&gt;&lt;/b&gt;&lt;/font&gt;&lt;div&gt;&lt;font style=&quot;font-size: 14px;&quot; color=&quot;#000000&quot;&gt;&lt;b&gt;Load:&amp;nbsp;&lt;/b&gt;&lt;/font&gt;&lt;/div&gt;&lt;div&gt;&lt;span style=&quot;color: rgb(0, 0, 0); font-size: 14px; background-color: transparent;&quot;&gt;Batch Processig&lt;/span&gt;&lt;/div&gt;&lt;div&gt;&lt;span style=&quot;color: rgb(0, 0, 0); font-size: 14px; background-color: transparent;&quot;&gt;Full Load&amp;nbsp; (Trunc &amp;amp; Insert)&lt;/span&gt;&lt;/div&gt;&lt;div&gt;&lt;br&gt;&lt;/div&gt;&lt;div&gt;&lt;font color=&quot;#000000&quot;&gt;&lt;span style=&quot;font-size: 14px;&quot;&gt;&lt;b&gt;Transformations&lt;/b&gt;:&lt;/span&gt;&lt;/font&gt;&lt;/div&gt;&lt;div&gt;&lt;font color=&quot;#000000&quot;&gt;&lt;span style=&quot;font-size: 14px;&quot;&gt;Data Cleaning&lt;/span&gt;&lt;/font&gt;&lt;/div&gt;&lt;div&gt;&lt;font color=&quot;#000000&quot;&gt;&lt;span style=&quot;font-size: 14px;&quot;&gt;Data Standardization&lt;/span&gt;&lt;/font&gt;&lt;/div&gt;&lt;div&gt;&lt;font color=&quot;#000000&quot;&gt;&lt;span style=&quot;font-size: 14px;&quot;&gt;Data Normalization&lt;/span&gt;&lt;/font&gt;&lt;/div&gt;&lt;div&gt;&lt;font color=&quot;#000000&quot;&gt;&lt;span style=&quot;font-size: 14px;&quot;&gt;Derived Columns&lt;/span&gt;&lt;/font&gt;&lt;/div&gt;&lt;div&gt;&lt;font color=&quot;#000000&quot;&gt;&lt;span style=&quot;font-size: 14px;&quot;&gt;Data Enrichment&lt;/span&gt;&lt;/font&gt;&lt;/div&gt;&lt;div&gt;&lt;font color=&quot;#000000&quot;&gt;&lt;span style=&quot;font-size: 14px;&quot;&gt;&lt;br&gt;&lt;/span&gt;&lt;/font&gt;&lt;/div&gt;&lt;div&gt;&lt;font color=&quot;#000000&quot;&gt;&lt;span style=&quot;font-size: 14px;&quot;&gt;&lt;b&gt;Data Model&lt;/b&gt;: None (as-is)&lt;/span&gt;&lt;/font&gt;&lt;/div&gt;&lt;div&gt;&lt;br&gt;&lt;/div&gt;&lt;div&gt;&lt;font color=&quot;#000000&quot;&gt;&amp;nbsp;&lt;/font&gt;&lt;/div&gt;&lt;/div&gt;" style="text;html=1;align=left;verticalAlign=middle;whiteSpace=wrap;rounded=0;" parent="1" vertex="1">
          <mxGeometry x="220" y="750" width="180" height="100" as="geometry" />
        </mxCell>
        <mxCell id="oVZN92Ko1cRPuxDCfX_i-44" value="&lt;font style=&quot;font-size: 14px;&quot; color=&quot;#000000&quot;&gt;&lt;b style=&quot;&quot;&gt;Object Type&lt;/b&gt;: Views&lt;/font&gt;&lt;div&gt;&lt;div&gt;&lt;font style=&quot;font-size: 14px;&quot; color=&quot;#000000&quot;&gt;&lt;b&gt;&lt;br&gt;&lt;/b&gt;&lt;/font&gt;&lt;/div&gt;&lt;div&gt;&lt;font style=&quot;font-size: 14px;&quot; color=&quot;#000000&quot;&gt;&lt;b&gt;No Load&lt;/b&gt;&lt;/font&gt;&lt;/div&gt;&lt;div&gt;&lt;br&gt;&lt;/div&gt;&lt;div&gt;&lt;font color=&quot;#000000&quot;&gt;&lt;span style=&quot;font-size: 14px;&quot;&gt;&lt;b&gt;Transformations&lt;/b&gt;:&lt;/span&gt;&lt;/font&gt;&lt;/div&gt;&lt;div&gt;&lt;font color=&quot;#000000&quot;&gt;&lt;span style=&quot;font-size: 14px;&quot;&gt;Data Integrations&lt;/span&gt;&lt;/font&gt;&lt;/div&gt;&lt;div&gt;&lt;font color=&quot;#000000&quot;&gt;&lt;span style=&quot;font-size: 14px;&quot;&gt;Aggregations&lt;/span&gt;&lt;/font&gt;&lt;/div&gt;&lt;div&gt;&lt;font color=&quot;#000000&quot;&gt;&lt;span style=&quot;font-size: 14px;&quot;&gt;Business Logics&lt;/span&gt;&lt;/font&gt;&lt;/div&gt;&lt;div&gt;&lt;font color=&quot;#000000&quot;&gt;&lt;span style=&quot;font-size: 14px;&quot;&gt;&lt;br&gt;&lt;/span&gt;&lt;/font&gt;&lt;/div&gt;&lt;div&gt;&lt;font color=&quot;#000000&quot;&gt;&lt;span style=&quot;font-size: 14px;&quot;&gt;&lt;b&gt;Data Model&lt;/b&gt;:&lt;/span&gt;&lt;/font&gt;&lt;/div&gt;&lt;div&gt;&lt;font color=&quot;#000000&quot;&gt;&lt;span style=&quot;font-size: 14px;&quot;&gt;Star Schema&lt;/span&gt;&lt;/font&gt;&lt;/div&gt;&lt;div&gt;&lt;font color=&quot;#000000&quot;&gt;&lt;span style=&quot;font-size: 14px;&quot;&gt;Flat Table&lt;/span&gt;&lt;/font&gt;&lt;/div&gt;&lt;div&gt;&lt;font color=&quot;#000000&quot;&gt;&lt;span style=&quot;font-size: 14px;&quot;&gt;Aggregated Table&lt;/span&gt;&lt;/font&gt;&lt;/div&gt;&lt;div&gt;&lt;br&gt;&lt;/div&gt;&lt;div&gt;&lt;font color=&quot;#000000&quot;&gt;&amp;nbsp;&lt;/font&gt;&lt;/div&gt;&lt;/div&gt;" style="text;html=1;align=left;verticalAlign=middle;whiteSpace=wrap;rounded=0;" parent="1" vertex="1">
          <mxGeometry x="490" y="740" width="180" height="100" as="geometry" />
        </mxCell>
        <mxCell id="1JW6cVkVWMdh0ZyQS6NZ-1" value="&lt;font style=&quot;color: rgb(0, 0, 0); font-size: 24px;&quot;&gt;BI &amp;amp; Reporting&lt;/font&gt;&lt;div&gt;&lt;font style=&quot;color: rgb(0, 0, 0); font-size: 24px;&quot;&gt;&lt;br&gt;&lt;/font&gt;&lt;/div&gt;" style="text;html=1;align=center;verticalAlign=middle;whiteSpace=wrap;rounded=0;" parent="1" vertex="1">
          <mxGeometry x="820" y="510" width="130" height="80" as="geometry" />
        </mxCell>
      </root>
    </mxGraphModel>
  </diagram>
  <diagram id="NsaI5VFNyem9kV1Q8it8" name="star schema">
    <mxGraphModel dx="3666" dy="2862" grid="0" gridSize="10" guides="1" tooltips="1" connect="1" arrows="1" fold="1" page="0" pageScale="1" pageWidth="850" pageHeight="1100" math="0" shadow="0">
      <root>
        <mxCell id="0" />
        <mxCell id="1" parent="0" />
        <mxCell id="bJpownEcDD49R5WzCh0p-1" value="&lt;font style=&quot;font-size: 16px;&quot;&gt;&lt;b&gt;Sales DATA MART (STAR SCHEMA)&lt;/b&gt;&lt;/font&gt;&amp;nbsp;" style="text;html=1;align=center;verticalAlign=middle;whiteSpace=wrap;rounded=0;" vertex="1" parent="1">
          <mxGeometry x="-1205" y="-1517" width="338" height="30" as="geometry" />
        </mxCell>
        <mxCell id="bJpownEcDD49R5WzCh0p-2" value="&lt;span&gt;gold.dim_customers&lt;/span&gt;" style="shape=table;startSize=30;container=1;collapsible=1;childLayout=tableLayout;fixedRows=1;rowLines=0;fontStyle=1;align=center;resizeLast=1;html=1;rounded=1;fillColor=#fff2cc;strokeColor=#d6b656;fontSize=16;" vertex="1" parent="1">
          <mxGeometry x="-993" y="-1314" width="262" height="656" as="geometry" />
        </mxCell>
        <mxCell id="bJpownEcDD49R5WzCh0p-3" value="" style="shape=tableRow;horizontal=0;startSize=0;swimlaneHead=0;swimlaneBody=0;fillColor=none;collapsible=0;dropTarget=0;points=[[0,0.5],[1,0.5]];portConstraint=eastwest;top=0;left=0;right=0;bottom=1;fontSize=16;fontStyle=1" vertex="1" parent="bJpownEcDD49R5WzCh0p-2">
          <mxGeometry y="30" width="262" height="57" as="geometry" />
        </mxCell>
        <mxCell id="bJpownEcDD49R5WzCh0p-4" value="PK" style="shape=partialRectangle;connectable=0;fillColor=none;top=0;left=0;bottom=0;right=0;fontStyle=1;overflow=hidden;whiteSpace=wrap;html=1;fontSize=16;" vertex="1" parent="bJpownEcDD49R5WzCh0p-3">
          <mxGeometry width="30" height="57" as="geometry">
            <mxRectangle width="30" height="57" as="alternateBounds" />
          </mxGeometry>
        </mxCell>
        <mxCell id="bJpownEcDD49R5WzCh0p-5" value="customer_key" style="shape=partialRectangle;connectable=0;fillColor=none;top=0;left=0;bottom=0;right=0;align=left;spacingLeft=6;fontStyle=5;overflow=hidden;whiteSpace=wrap;html=1;fontSize=16;" vertex="1" parent="bJpownEcDD49R5WzCh0p-3">
          <mxGeometry x="30" width="232" height="57" as="geometry">
            <mxRectangle width="232" height="57" as="alternateBounds" />
          </mxGeometry>
        </mxCell>
        <mxCell id="bJpownEcDD49R5WzCh0p-6" value="" style="shape=tableRow;horizontal=0;startSize=0;swimlaneHead=0;swimlaneBody=0;fillColor=none;collapsible=0;dropTarget=0;points=[[0,0.5],[1,0.5]];portConstraint=eastwest;top=0;left=0;right=0;bottom=0;fontSize=16;fontStyle=1" vertex="1" parent="bJpownEcDD49R5WzCh0p-2">
          <mxGeometry y="87" width="262" height="57" as="geometry" />
        </mxCell>
        <mxCell id="bJpownEcDD49R5WzCh0p-7" value="" style="shape=partialRectangle;connectable=0;fillColor=none;top=0;left=0;bottom=0;right=0;editable=1;overflow=hidden;whiteSpace=wrap;html=1;fontSize=16;fontStyle=1" vertex="1" parent="bJpownEcDD49R5WzCh0p-6">
          <mxGeometry width="30" height="57" as="geometry">
            <mxRectangle width="30" height="57" as="alternateBounds" />
          </mxGeometry>
        </mxCell>
        <mxCell id="bJpownEcDD49R5WzCh0p-8" value="&lt;font&gt;customer_id&lt;/font&gt;" style="shape=partialRectangle;connectable=0;fillColor=none;top=0;left=0;bottom=0;right=0;align=left;spacingLeft=6;overflow=hidden;whiteSpace=wrap;html=1;fontSize=16;fontStyle=1" vertex="1" parent="bJpownEcDD49R5WzCh0p-6">
          <mxGeometry x="30" width="232" height="57" as="geometry">
            <mxRectangle width="232" height="57" as="alternateBounds" />
          </mxGeometry>
        </mxCell>
        <mxCell id="bJpownEcDD49R5WzCh0p-9" value="" style="shape=tableRow;horizontal=0;startSize=0;swimlaneHead=0;swimlaneBody=0;fillColor=none;collapsible=0;dropTarget=0;points=[[0,0.5],[1,0.5]];portConstraint=eastwest;top=0;left=0;right=0;bottom=0;strokeWidth=5;fontSize=16;fontStyle=1" vertex="1" parent="bJpownEcDD49R5WzCh0p-2">
          <mxGeometry y="144" width="262" height="57" as="geometry" />
        </mxCell>
        <mxCell id="bJpownEcDD49R5WzCh0p-10" value="" style="shape=partialRectangle;connectable=0;fillColor=none;top=0;left=0;bottom=0;right=0;editable=1;overflow=hidden;whiteSpace=wrap;html=1;strokeWidth=5;fontSize=16;fontStyle=1" vertex="1" parent="bJpownEcDD49R5WzCh0p-9">
          <mxGeometry width="30" height="57" as="geometry">
            <mxRectangle width="30" height="57" as="alternateBounds" />
          </mxGeometry>
        </mxCell>
        <mxCell id="bJpownEcDD49R5WzCh0p-11" value="&lt;font&gt;customer_number&lt;/font&gt;" style="shape=partialRectangle;connectable=0;fillColor=none;top=0;left=0;bottom=0;right=0;align=left;spacingLeft=6;overflow=hidden;whiteSpace=wrap;html=1;strokeWidth=5;fontSize=16;fontStyle=1" vertex="1" parent="bJpownEcDD49R5WzCh0p-9">
          <mxGeometry x="30" width="232" height="57" as="geometry">
            <mxRectangle width="232" height="57" as="alternateBounds" />
          </mxGeometry>
        </mxCell>
        <mxCell id="bJpownEcDD49R5WzCh0p-12" value="" style="shape=tableRow;horizontal=0;startSize=0;swimlaneHead=0;swimlaneBody=0;fillColor=none;collapsible=0;dropTarget=0;points=[[0,0.5],[1,0.5]];portConstraint=eastwest;top=0;left=0;right=0;bottom=0;strokeWidth=5;fontSize=16;fontStyle=1" vertex="1" parent="bJpownEcDD49R5WzCh0p-2">
          <mxGeometry y="201" width="262" height="65" as="geometry" />
        </mxCell>
        <mxCell id="bJpownEcDD49R5WzCh0p-13" value="" style="shape=partialRectangle;connectable=0;fillColor=none;top=0;left=0;bottom=0;right=0;editable=1;overflow=hidden;whiteSpace=wrap;html=1;strokeWidth=5;fontSize=16;fontStyle=1" vertex="1" parent="bJpownEcDD49R5WzCh0p-12">
          <mxGeometry width="30" height="65" as="geometry">
            <mxRectangle width="30" height="65" as="alternateBounds" />
          </mxGeometry>
        </mxCell>
        <mxCell id="bJpownEcDD49R5WzCh0p-14" value="&lt;font&gt;first_name&lt;/font&gt;" style="shape=partialRectangle;connectable=0;fillColor=none;top=0;left=0;bottom=0;right=0;align=left;spacingLeft=6;overflow=hidden;whiteSpace=wrap;html=1;strokeWidth=5;fontSize=16;fontStyle=1" vertex="1" parent="bJpownEcDD49R5WzCh0p-12">
          <mxGeometry x="30" width="232" height="65" as="geometry">
            <mxRectangle width="232" height="65" as="alternateBounds" />
          </mxGeometry>
        </mxCell>
        <mxCell id="bJpownEcDD49R5WzCh0p-15" value="" style="shape=tableRow;horizontal=0;startSize=0;swimlaneHead=0;swimlaneBody=0;fillColor=none;collapsible=0;dropTarget=0;points=[[0,0.5],[1,0.5]];portConstraint=eastwest;top=0;left=0;right=0;bottom=0;strokeWidth=5;fontSize=16;fontStyle=1" vertex="1" parent="bJpownEcDD49R5WzCh0p-2">
          <mxGeometry y="266" width="262" height="65" as="geometry" />
        </mxCell>
        <mxCell id="bJpownEcDD49R5WzCh0p-16" value="" style="shape=partialRectangle;connectable=0;fillColor=none;top=0;left=0;bottom=0;right=0;editable=1;overflow=hidden;whiteSpace=wrap;html=1;strokeWidth=5;fontSize=16;fontStyle=1" vertex="1" parent="bJpownEcDD49R5WzCh0p-15">
          <mxGeometry width="30" height="65" as="geometry">
            <mxRectangle width="30" height="65" as="alternateBounds" />
          </mxGeometry>
        </mxCell>
        <mxCell id="bJpownEcDD49R5WzCh0p-17" value="&lt;font&gt;last_name&lt;/font&gt;" style="shape=partialRectangle;connectable=0;fillColor=none;top=0;left=0;bottom=0;right=0;align=left;spacingLeft=6;overflow=hidden;whiteSpace=wrap;html=1;strokeWidth=5;fontSize=16;fontStyle=1" vertex="1" parent="bJpownEcDD49R5WzCh0p-15">
          <mxGeometry x="30" width="232" height="65" as="geometry">
            <mxRectangle width="232" height="65" as="alternateBounds" />
          </mxGeometry>
        </mxCell>
        <mxCell id="bJpownEcDD49R5WzCh0p-18" value="" style="shape=tableRow;horizontal=0;startSize=0;swimlaneHead=0;swimlaneBody=0;fillColor=none;collapsible=0;dropTarget=0;points=[[0,0.5],[1,0.5]];portConstraint=eastwest;top=0;left=0;right=0;bottom=0;strokeWidth=5;fontSize=16;fontStyle=1" vertex="1" parent="bJpownEcDD49R5WzCh0p-2">
          <mxGeometry y="331" width="262" height="65" as="geometry" />
        </mxCell>
        <mxCell id="bJpownEcDD49R5WzCh0p-19" value="" style="shape=partialRectangle;connectable=0;fillColor=none;top=0;left=0;bottom=0;right=0;editable=1;overflow=hidden;whiteSpace=wrap;html=1;strokeWidth=5;fontSize=16;fontStyle=1" vertex="1" parent="bJpownEcDD49R5WzCh0p-18">
          <mxGeometry width="30" height="65" as="geometry">
            <mxRectangle width="30" height="65" as="alternateBounds" />
          </mxGeometry>
        </mxCell>
        <mxCell id="bJpownEcDD49R5WzCh0p-20" value="&lt;font&gt;country&lt;/font&gt;" style="shape=partialRectangle;connectable=0;fillColor=none;top=0;left=0;bottom=0;right=0;align=left;spacingLeft=6;overflow=hidden;whiteSpace=wrap;html=1;strokeWidth=5;fontSize=16;fontStyle=1" vertex="1" parent="bJpownEcDD49R5WzCh0p-18">
          <mxGeometry x="30" width="232" height="65" as="geometry">
            <mxRectangle width="232" height="65" as="alternateBounds" />
          </mxGeometry>
        </mxCell>
        <mxCell id="bJpownEcDD49R5WzCh0p-21" value="" style="shape=tableRow;horizontal=0;startSize=0;swimlaneHead=0;swimlaneBody=0;fillColor=none;collapsible=0;dropTarget=0;points=[[0,0.5],[1,0.5]];portConstraint=eastwest;top=0;left=0;right=0;bottom=0;strokeWidth=5;fontSize=16;fontStyle=1" vertex="1" parent="bJpownEcDD49R5WzCh0p-2">
          <mxGeometry y="396" width="262" height="65" as="geometry" />
        </mxCell>
        <mxCell id="bJpownEcDD49R5WzCh0p-22" value="" style="shape=partialRectangle;connectable=0;fillColor=none;top=0;left=0;bottom=0;right=0;editable=1;overflow=hidden;whiteSpace=wrap;html=1;strokeWidth=5;fontSize=16;fontStyle=1" vertex="1" parent="bJpownEcDD49R5WzCh0p-21">
          <mxGeometry width="30" height="65" as="geometry">
            <mxRectangle width="30" height="65" as="alternateBounds" />
          </mxGeometry>
        </mxCell>
        <mxCell id="bJpownEcDD49R5WzCh0p-23" value="&lt;font&gt;marital status&amp;nbsp;&lt;/font&gt;" style="shape=partialRectangle;connectable=0;fillColor=none;top=0;left=0;bottom=0;right=0;align=left;spacingLeft=6;overflow=hidden;whiteSpace=wrap;html=1;strokeWidth=5;fontSize=16;fontStyle=1" vertex="1" parent="bJpownEcDD49R5WzCh0p-21">
          <mxGeometry x="30" width="232" height="65" as="geometry">
            <mxRectangle width="232" height="65" as="alternateBounds" />
          </mxGeometry>
        </mxCell>
        <mxCell id="bJpownEcDD49R5WzCh0p-24" value="" style="shape=tableRow;horizontal=0;startSize=0;swimlaneHead=0;swimlaneBody=0;fillColor=none;collapsible=0;dropTarget=0;points=[[0,0.5],[1,0.5]];portConstraint=eastwest;top=0;left=0;right=0;bottom=0;strokeWidth=5;fontSize=16;fontStyle=1" vertex="1" parent="bJpownEcDD49R5WzCh0p-2">
          <mxGeometry y="461" width="262" height="65" as="geometry" />
        </mxCell>
        <mxCell id="bJpownEcDD49R5WzCh0p-25" value="" style="shape=partialRectangle;connectable=0;fillColor=none;top=0;left=0;bottom=0;right=0;editable=1;overflow=hidden;whiteSpace=wrap;html=1;strokeWidth=5;fontSize=16;fontStyle=1" vertex="1" parent="bJpownEcDD49R5WzCh0p-24">
          <mxGeometry width="30" height="65" as="geometry">
            <mxRectangle width="30" height="65" as="alternateBounds" />
          </mxGeometry>
        </mxCell>
        <mxCell id="bJpownEcDD49R5WzCh0p-26" value="new_gender" style="shape=partialRectangle;connectable=0;fillColor=none;top=0;left=0;bottom=0;right=0;align=left;spacingLeft=6;overflow=hidden;whiteSpace=wrap;html=1;strokeWidth=5;fontSize=16;fontStyle=1" vertex="1" parent="bJpownEcDD49R5WzCh0p-24">
          <mxGeometry x="30" width="232" height="65" as="geometry">
            <mxRectangle width="232" height="65" as="alternateBounds" />
          </mxGeometry>
        </mxCell>
        <mxCell id="bJpownEcDD49R5WzCh0p-52" value="" style="shape=tableRow;horizontal=0;startSize=0;swimlaneHead=0;swimlaneBody=0;fillColor=none;collapsible=0;dropTarget=0;points=[[0,0.5],[1,0.5]];portConstraint=eastwest;top=0;left=0;right=0;bottom=0;strokeWidth=5;fontSize=16;fontStyle=1" vertex="1" parent="bJpownEcDD49R5WzCh0p-2">
          <mxGeometry y="526" width="262" height="65" as="geometry" />
        </mxCell>
        <mxCell id="bJpownEcDD49R5WzCh0p-53" value="" style="shape=partialRectangle;connectable=0;fillColor=none;top=0;left=0;bottom=0;right=0;editable=1;overflow=hidden;whiteSpace=wrap;html=1;strokeWidth=5;fontSize=16;fontStyle=1" vertex="1" parent="bJpownEcDD49R5WzCh0p-52">
          <mxGeometry width="30" height="65" as="geometry">
            <mxRectangle width="30" height="65" as="alternateBounds" />
          </mxGeometry>
        </mxCell>
        <mxCell id="bJpownEcDD49R5WzCh0p-54" value="birthdate" style="shape=partialRectangle;connectable=0;fillColor=none;top=0;left=0;bottom=0;right=0;align=left;spacingLeft=6;overflow=hidden;whiteSpace=wrap;html=1;strokeWidth=5;fontSize=16;fontStyle=1" vertex="1" parent="bJpownEcDD49R5WzCh0p-52">
          <mxGeometry x="30" width="232" height="65" as="geometry">
            <mxRectangle width="232" height="65" as="alternateBounds" />
          </mxGeometry>
        </mxCell>
        <mxCell id="bJpownEcDD49R5WzCh0p-55" value="" style="shape=tableRow;horizontal=0;startSize=0;swimlaneHead=0;swimlaneBody=0;fillColor=none;collapsible=0;dropTarget=0;points=[[0,0.5],[1,0.5]];portConstraint=eastwest;top=0;left=0;right=0;bottom=0;strokeWidth=5;fontSize=16;fontStyle=1" vertex="1" parent="bJpownEcDD49R5WzCh0p-2">
          <mxGeometry y="591" width="262" height="65" as="geometry" />
        </mxCell>
        <mxCell id="bJpownEcDD49R5WzCh0p-56" value="" style="shape=partialRectangle;connectable=0;fillColor=none;top=0;left=0;bottom=0;right=0;editable=1;overflow=hidden;whiteSpace=wrap;html=1;strokeWidth=5;fontSize=16;fontStyle=1" vertex="1" parent="bJpownEcDD49R5WzCh0p-55">
          <mxGeometry width="30" height="65" as="geometry">
            <mxRectangle width="30" height="65" as="alternateBounds" />
          </mxGeometry>
        </mxCell>
        <mxCell id="bJpownEcDD49R5WzCh0p-57" value="country" style="shape=partialRectangle;connectable=0;fillColor=none;top=0;left=0;bottom=0;right=0;align=left;spacingLeft=6;overflow=hidden;whiteSpace=wrap;html=1;strokeWidth=5;fontSize=16;fontStyle=1" vertex="1" parent="bJpownEcDD49R5WzCh0p-55">
          <mxGeometry x="30" width="232" height="65" as="geometry">
            <mxRectangle width="232" height="65" as="alternateBounds" />
          </mxGeometry>
        </mxCell>
        <mxCell id="bJpownEcDD49R5WzCh0p-58" value="&lt;span&gt;gold.dim_products&lt;/span&gt;" style="shape=table;startSize=30;container=1;collapsible=1;childLayout=tableLayout;fixedRows=1;rowLines=0;fontStyle=1;align=center;resizeLast=1;html=1;rounded=1;fillColor=#fff2cc;strokeColor=#d6b656;fontSize=16;" vertex="1" parent="1">
          <mxGeometry x="-173" y="-1314" width="262" height="721" as="geometry" />
        </mxCell>
        <mxCell id="bJpownEcDD49R5WzCh0p-59" value="" style="shape=tableRow;horizontal=0;startSize=0;swimlaneHead=0;swimlaneBody=0;fillColor=none;collapsible=0;dropTarget=0;points=[[0,0.5],[1,0.5]];portConstraint=eastwest;top=0;left=0;right=0;bottom=1;fontSize=16;fontStyle=1" vertex="1" parent="bJpownEcDD49R5WzCh0p-58">
          <mxGeometry y="30" width="262" height="57" as="geometry" />
        </mxCell>
        <mxCell id="bJpownEcDD49R5WzCh0p-60" value="PK" style="shape=partialRectangle;connectable=0;fillColor=none;top=0;left=0;bottom=0;right=0;fontStyle=1;overflow=hidden;whiteSpace=wrap;html=1;fontSize=16;" vertex="1" parent="bJpownEcDD49R5WzCh0p-59">
          <mxGeometry width="30" height="57" as="geometry">
            <mxRectangle width="30" height="57" as="alternateBounds" />
          </mxGeometry>
        </mxCell>
        <mxCell id="bJpownEcDD49R5WzCh0p-61" value="product_key" style="shape=partialRectangle;connectable=0;fillColor=none;top=0;left=0;bottom=0;right=0;align=left;spacingLeft=6;fontStyle=5;overflow=hidden;whiteSpace=wrap;html=1;fontSize=16;" vertex="1" parent="bJpownEcDD49R5WzCh0p-59">
          <mxGeometry x="30" width="232" height="57" as="geometry">
            <mxRectangle width="232" height="57" as="alternateBounds" />
          </mxGeometry>
        </mxCell>
        <mxCell id="bJpownEcDD49R5WzCh0p-62" value="" style="shape=tableRow;horizontal=0;startSize=0;swimlaneHead=0;swimlaneBody=0;fillColor=none;collapsible=0;dropTarget=0;points=[[0,0.5],[1,0.5]];portConstraint=eastwest;top=0;left=0;right=0;bottom=0;fontSize=16;fontStyle=1" vertex="1" parent="bJpownEcDD49R5WzCh0p-58">
          <mxGeometry y="87" width="262" height="57" as="geometry" />
        </mxCell>
        <mxCell id="bJpownEcDD49R5WzCh0p-63" value="" style="shape=partialRectangle;connectable=0;fillColor=none;top=0;left=0;bottom=0;right=0;editable=1;overflow=hidden;whiteSpace=wrap;html=1;fontSize=16;fontStyle=1" vertex="1" parent="bJpownEcDD49R5WzCh0p-62">
          <mxGeometry width="30" height="57" as="geometry">
            <mxRectangle width="30" height="57" as="alternateBounds" />
          </mxGeometry>
        </mxCell>
        <mxCell id="bJpownEcDD49R5WzCh0p-64" value="&lt;font&gt;product_id&lt;/font&gt;" style="shape=partialRectangle;connectable=0;fillColor=none;top=0;left=0;bottom=0;right=0;align=left;spacingLeft=6;overflow=hidden;whiteSpace=wrap;html=1;fontSize=16;fontStyle=1" vertex="1" parent="bJpownEcDD49R5WzCh0p-62">
          <mxGeometry x="30" width="232" height="57" as="geometry">
            <mxRectangle width="232" height="57" as="alternateBounds" />
          </mxGeometry>
        </mxCell>
        <mxCell id="bJpownEcDD49R5WzCh0p-65" value="" style="shape=tableRow;horizontal=0;startSize=0;swimlaneHead=0;swimlaneBody=0;fillColor=none;collapsible=0;dropTarget=0;points=[[0,0.5],[1,0.5]];portConstraint=eastwest;top=0;left=0;right=0;bottom=0;strokeWidth=5;fontSize=16;fontStyle=1" vertex="1" parent="bJpownEcDD49R5WzCh0p-58">
          <mxGeometry y="144" width="262" height="57" as="geometry" />
        </mxCell>
        <mxCell id="bJpownEcDD49R5WzCh0p-66" value="" style="shape=partialRectangle;connectable=0;fillColor=none;top=0;left=0;bottom=0;right=0;editable=1;overflow=hidden;whiteSpace=wrap;html=1;strokeWidth=5;fontSize=16;fontStyle=1" vertex="1" parent="bJpownEcDD49R5WzCh0p-65">
          <mxGeometry width="30" height="57" as="geometry">
            <mxRectangle width="30" height="57" as="alternateBounds" />
          </mxGeometry>
        </mxCell>
        <mxCell id="bJpownEcDD49R5WzCh0p-67" value="&lt;font&gt;product_number&lt;/font&gt;" style="shape=partialRectangle;connectable=0;fillColor=none;top=0;left=0;bottom=0;right=0;align=left;spacingLeft=6;overflow=hidden;whiteSpace=wrap;html=1;strokeWidth=5;fontSize=16;fontStyle=1" vertex="1" parent="bJpownEcDD49R5WzCh0p-65">
          <mxGeometry x="30" width="232" height="57" as="geometry">
            <mxRectangle width="232" height="57" as="alternateBounds" />
          </mxGeometry>
        </mxCell>
        <mxCell id="bJpownEcDD49R5WzCh0p-68" value="" style="shape=tableRow;horizontal=0;startSize=0;swimlaneHead=0;swimlaneBody=0;fillColor=none;collapsible=0;dropTarget=0;points=[[0,0.5],[1,0.5]];portConstraint=eastwest;top=0;left=0;right=0;bottom=0;strokeWidth=5;fontSize=16;fontStyle=1" vertex="1" parent="bJpownEcDD49R5WzCh0p-58">
          <mxGeometry y="201" width="262" height="65" as="geometry" />
        </mxCell>
        <mxCell id="bJpownEcDD49R5WzCh0p-69" value="" style="shape=partialRectangle;connectable=0;fillColor=none;top=0;left=0;bottom=0;right=0;editable=1;overflow=hidden;whiteSpace=wrap;html=1;strokeWidth=5;fontSize=16;fontStyle=1" vertex="1" parent="bJpownEcDD49R5WzCh0p-68">
          <mxGeometry width="30" height="65" as="geometry">
            <mxRectangle width="30" height="65" as="alternateBounds" />
          </mxGeometry>
        </mxCell>
        <mxCell id="bJpownEcDD49R5WzCh0p-70" value="&lt;font&gt;product_name&lt;/font&gt;" style="shape=partialRectangle;connectable=0;fillColor=none;top=0;left=0;bottom=0;right=0;align=left;spacingLeft=6;overflow=hidden;whiteSpace=wrap;html=1;strokeWidth=5;fontSize=16;fontStyle=1" vertex="1" parent="bJpownEcDD49R5WzCh0p-68">
          <mxGeometry x="30" width="232" height="65" as="geometry">
            <mxRectangle width="232" height="65" as="alternateBounds" />
          </mxGeometry>
        </mxCell>
        <mxCell id="bJpownEcDD49R5WzCh0p-71" value="" style="shape=tableRow;horizontal=0;startSize=0;swimlaneHead=0;swimlaneBody=0;fillColor=none;collapsible=0;dropTarget=0;points=[[0,0.5],[1,0.5]];portConstraint=eastwest;top=0;left=0;right=0;bottom=0;strokeWidth=5;fontSize=16;fontStyle=1" vertex="1" parent="bJpownEcDD49R5WzCh0p-58">
          <mxGeometry y="266" width="262" height="65" as="geometry" />
        </mxCell>
        <mxCell id="bJpownEcDD49R5WzCh0p-72" value="" style="shape=partialRectangle;connectable=0;fillColor=none;top=0;left=0;bottom=0;right=0;editable=1;overflow=hidden;whiteSpace=wrap;html=1;strokeWidth=5;fontSize=16;fontStyle=1" vertex="1" parent="bJpownEcDD49R5WzCh0p-71">
          <mxGeometry width="30" height="65" as="geometry">
            <mxRectangle width="30" height="65" as="alternateBounds" />
          </mxGeometry>
        </mxCell>
        <mxCell id="bJpownEcDD49R5WzCh0p-73" value="category_id" style="shape=partialRectangle;connectable=0;fillColor=none;top=0;left=0;bottom=0;right=0;align=left;spacingLeft=6;overflow=hidden;whiteSpace=wrap;html=1;strokeWidth=5;fontSize=16;fontStyle=1" vertex="1" parent="bJpownEcDD49R5WzCh0p-71">
          <mxGeometry x="30" width="232" height="65" as="geometry">
            <mxRectangle width="232" height="65" as="alternateBounds" />
          </mxGeometry>
        </mxCell>
        <mxCell id="bJpownEcDD49R5WzCh0p-74" value="" style="shape=tableRow;horizontal=0;startSize=0;swimlaneHead=0;swimlaneBody=0;fillColor=none;collapsible=0;dropTarget=0;points=[[0,0.5],[1,0.5]];portConstraint=eastwest;top=0;left=0;right=0;bottom=0;strokeWidth=5;fontSize=16;fontStyle=1" vertex="1" parent="bJpownEcDD49R5WzCh0p-58">
          <mxGeometry y="331" width="262" height="65" as="geometry" />
        </mxCell>
        <mxCell id="bJpownEcDD49R5WzCh0p-75" value="" style="shape=partialRectangle;connectable=0;fillColor=none;top=0;left=0;bottom=0;right=0;editable=1;overflow=hidden;whiteSpace=wrap;html=1;strokeWidth=5;fontSize=16;fontStyle=1" vertex="1" parent="bJpownEcDD49R5WzCh0p-74">
          <mxGeometry width="30" height="65" as="geometry">
            <mxRectangle width="30" height="65" as="alternateBounds" />
          </mxGeometry>
        </mxCell>
        <mxCell id="bJpownEcDD49R5WzCh0p-76" value="&lt;font&gt;category&lt;/font&gt;" style="shape=partialRectangle;connectable=0;fillColor=none;top=0;left=0;bottom=0;right=0;align=left;spacingLeft=6;overflow=hidden;whiteSpace=wrap;html=1;strokeWidth=5;fontSize=16;fontStyle=1" vertex="1" parent="bJpownEcDD49R5WzCh0p-74">
          <mxGeometry x="30" width="232" height="65" as="geometry">
            <mxRectangle width="232" height="65" as="alternateBounds" />
          </mxGeometry>
        </mxCell>
        <mxCell id="bJpownEcDD49R5WzCh0p-77" value="" style="shape=tableRow;horizontal=0;startSize=0;swimlaneHead=0;swimlaneBody=0;fillColor=none;collapsible=0;dropTarget=0;points=[[0,0.5],[1,0.5]];portConstraint=eastwest;top=0;left=0;right=0;bottom=0;strokeWidth=5;fontSize=16;fontStyle=1" vertex="1" parent="bJpownEcDD49R5WzCh0p-58">
          <mxGeometry y="396" width="262" height="65" as="geometry" />
        </mxCell>
        <mxCell id="bJpownEcDD49R5WzCh0p-78" value="" style="shape=partialRectangle;connectable=0;fillColor=none;top=0;left=0;bottom=0;right=0;editable=1;overflow=hidden;whiteSpace=wrap;html=1;strokeWidth=5;fontSize=16;fontStyle=1" vertex="1" parent="bJpownEcDD49R5WzCh0p-77">
          <mxGeometry width="30" height="65" as="geometry">
            <mxRectangle width="30" height="65" as="alternateBounds" />
          </mxGeometry>
        </mxCell>
        <mxCell id="bJpownEcDD49R5WzCh0p-79" value="&lt;font&gt;subcategory&lt;/font&gt;" style="shape=partialRectangle;connectable=0;fillColor=none;top=0;left=0;bottom=0;right=0;align=left;spacingLeft=6;overflow=hidden;whiteSpace=wrap;html=1;strokeWidth=5;fontSize=16;fontStyle=1" vertex="1" parent="bJpownEcDD49R5WzCh0p-77">
          <mxGeometry x="30" width="232" height="65" as="geometry">
            <mxRectangle width="232" height="65" as="alternateBounds" />
          </mxGeometry>
        </mxCell>
        <mxCell id="bJpownEcDD49R5WzCh0p-80" value="" style="shape=tableRow;horizontal=0;startSize=0;swimlaneHead=0;swimlaneBody=0;fillColor=none;collapsible=0;dropTarget=0;points=[[0,0.5],[1,0.5]];portConstraint=eastwest;top=0;left=0;right=0;bottom=0;strokeWidth=5;fontSize=16;fontStyle=1" vertex="1" parent="bJpownEcDD49R5WzCh0p-58">
          <mxGeometry y="461" width="262" height="65" as="geometry" />
        </mxCell>
        <mxCell id="bJpownEcDD49R5WzCh0p-81" value="" style="shape=partialRectangle;connectable=0;fillColor=none;top=0;left=0;bottom=0;right=0;editable=1;overflow=hidden;whiteSpace=wrap;html=1;strokeWidth=5;fontSize=16;fontStyle=1" vertex="1" parent="bJpownEcDD49R5WzCh0p-80">
          <mxGeometry width="30" height="65" as="geometry">
            <mxRectangle width="30" height="65" as="alternateBounds" />
          </mxGeometry>
        </mxCell>
        <mxCell id="bJpownEcDD49R5WzCh0p-82" value="maintenance" style="shape=partialRectangle;connectable=0;fillColor=none;top=0;left=0;bottom=0;right=0;align=left;spacingLeft=6;overflow=hidden;whiteSpace=wrap;html=1;strokeWidth=5;fontSize=16;fontStyle=1" vertex="1" parent="bJpownEcDD49R5WzCh0p-80">
          <mxGeometry x="30" width="232" height="65" as="geometry">
            <mxRectangle width="232" height="65" as="alternateBounds" />
          </mxGeometry>
        </mxCell>
        <mxCell id="bJpownEcDD49R5WzCh0p-83" value="" style="shape=tableRow;horizontal=0;startSize=0;swimlaneHead=0;swimlaneBody=0;fillColor=none;collapsible=0;dropTarget=0;points=[[0,0.5],[1,0.5]];portConstraint=eastwest;top=0;left=0;right=0;bottom=0;strokeWidth=5;fontSize=16;fontStyle=1" vertex="1" parent="bJpownEcDD49R5WzCh0p-58">
          <mxGeometry y="526" width="262" height="65" as="geometry" />
        </mxCell>
        <mxCell id="bJpownEcDD49R5WzCh0p-84" value="" style="shape=partialRectangle;connectable=0;fillColor=none;top=0;left=0;bottom=0;right=0;editable=1;overflow=hidden;whiteSpace=wrap;html=1;strokeWidth=5;fontSize=16;fontStyle=1" vertex="1" parent="bJpownEcDD49R5WzCh0p-83">
          <mxGeometry width="30" height="65" as="geometry">
            <mxRectangle width="30" height="65" as="alternateBounds" />
          </mxGeometry>
        </mxCell>
        <mxCell id="bJpownEcDD49R5WzCh0p-85" value="cost" style="shape=partialRectangle;connectable=0;fillColor=none;top=0;left=0;bottom=0;right=0;align=left;spacingLeft=6;overflow=hidden;whiteSpace=wrap;html=1;strokeWidth=5;fontSize=16;fontStyle=1" vertex="1" parent="bJpownEcDD49R5WzCh0p-83">
          <mxGeometry x="30" width="232" height="65" as="geometry">
            <mxRectangle width="232" height="65" as="alternateBounds" />
          </mxGeometry>
        </mxCell>
        <mxCell id="bJpownEcDD49R5WzCh0p-86" value="" style="shape=tableRow;horizontal=0;startSize=0;swimlaneHead=0;swimlaneBody=0;fillColor=none;collapsible=0;dropTarget=0;points=[[0,0.5],[1,0.5]];portConstraint=eastwest;top=0;left=0;right=0;bottom=0;strokeWidth=5;fontSize=16;fontStyle=1" vertex="1" parent="bJpownEcDD49R5WzCh0p-58">
          <mxGeometry y="591" width="262" height="65" as="geometry" />
        </mxCell>
        <mxCell id="bJpownEcDD49R5WzCh0p-87" value="" style="shape=partialRectangle;connectable=0;fillColor=none;top=0;left=0;bottom=0;right=0;editable=1;overflow=hidden;whiteSpace=wrap;html=1;strokeWidth=5;fontSize=16;fontStyle=1" vertex="1" parent="bJpownEcDD49R5WzCh0p-86">
          <mxGeometry width="30" height="65" as="geometry">
            <mxRectangle width="30" height="65" as="alternateBounds" />
          </mxGeometry>
        </mxCell>
        <mxCell id="bJpownEcDD49R5WzCh0p-88" value="product_line" style="shape=partialRectangle;connectable=0;fillColor=none;top=0;left=0;bottom=0;right=0;align=left;spacingLeft=6;overflow=hidden;whiteSpace=wrap;html=1;strokeWidth=5;fontSize=16;fontStyle=1" vertex="1" parent="bJpownEcDD49R5WzCh0p-86">
          <mxGeometry x="30" width="232" height="65" as="geometry">
            <mxRectangle width="232" height="65" as="alternateBounds" />
          </mxGeometry>
        </mxCell>
        <mxCell id="bJpownEcDD49R5WzCh0p-89" value="" style="shape=tableRow;horizontal=0;startSize=0;swimlaneHead=0;swimlaneBody=0;fillColor=none;collapsible=0;dropTarget=0;points=[[0,0.5],[1,0.5]];portConstraint=eastwest;top=0;left=0;right=0;bottom=0;strokeWidth=5;fontSize=16;fontStyle=1" vertex="1" parent="bJpownEcDD49R5WzCh0p-58">
          <mxGeometry y="656" width="262" height="65" as="geometry" />
        </mxCell>
        <mxCell id="bJpownEcDD49R5WzCh0p-90" value="" style="shape=partialRectangle;connectable=0;fillColor=none;top=0;left=0;bottom=0;right=0;editable=1;overflow=hidden;whiteSpace=wrap;html=1;strokeWidth=5;fontSize=16;fontStyle=1" vertex="1" parent="bJpownEcDD49R5WzCh0p-89">
          <mxGeometry width="30" height="65" as="geometry">
            <mxRectangle width="30" height="65" as="alternateBounds" />
          </mxGeometry>
        </mxCell>
        <mxCell id="bJpownEcDD49R5WzCh0p-91" value="start_date" style="shape=partialRectangle;connectable=0;fillColor=none;top=0;left=0;bottom=0;right=0;align=left;spacingLeft=6;overflow=hidden;whiteSpace=wrap;html=1;strokeWidth=5;fontSize=16;fontStyle=1" vertex="1" parent="bJpownEcDD49R5WzCh0p-89">
          <mxGeometry x="30" width="232" height="65" as="geometry">
            <mxRectangle width="232" height="65" as="alternateBounds" />
          </mxGeometry>
        </mxCell>
        <mxCell id="bJpownEcDD49R5WzCh0p-92" value="&lt;span&gt;gold.fact_sales&lt;/span&gt;" style="shape=table;startSize=30;container=1;collapsible=1;childLayout=tableLayout;fixedRows=1;rowLines=0;fontStyle=1;align=center;resizeLast=1;html=1;rounded=1;fillColor=#dae8fc;strokeColor=#6c8ebf;fontSize=16;" vertex="1" parent="1">
          <mxGeometry x="-575" y="-1314" width="262" height="664" as="geometry" />
        </mxCell>
        <mxCell id="bJpownEcDD49R5WzCh0p-96" value="" style="shape=tableRow;horizontal=0;startSize=0;swimlaneHead=0;swimlaneBody=0;fillColor=none;collapsible=0;dropTarget=0;points=[[0,0.5],[1,0.5]];portConstraint=eastwest;top=0;left=0;right=0;bottom=0;fontSize=16;fontStyle=1" vertex="1" parent="bJpownEcDD49R5WzCh0p-92">
          <mxGeometry y="30" width="262" height="57" as="geometry" />
        </mxCell>
        <mxCell id="bJpownEcDD49R5WzCh0p-97" value="" style="shape=partialRectangle;connectable=0;fillColor=none;top=0;left=0;bottom=0;right=0;editable=1;overflow=hidden;whiteSpace=wrap;html=1;fontSize=16;fontStyle=1" vertex="1" parent="bJpownEcDD49R5WzCh0p-96">
          <mxGeometry width="30" height="57" as="geometry">
            <mxRectangle width="30" height="57" as="alternateBounds" />
          </mxGeometry>
        </mxCell>
        <mxCell id="bJpownEcDD49R5WzCh0p-98" value="&lt;font&gt;order_number&lt;/font&gt;" style="shape=partialRectangle;connectable=0;fillColor=none;top=0;left=0;bottom=0;right=0;align=left;spacingLeft=6;overflow=hidden;whiteSpace=wrap;html=1;fontSize=16;fontStyle=1" vertex="1" parent="bJpownEcDD49R5WzCh0p-96">
          <mxGeometry x="30" width="232" height="57" as="geometry">
            <mxRectangle width="232" height="57" as="alternateBounds" />
          </mxGeometry>
        </mxCell>
        <mxCell id="bJpownEcDD49R5WzCh0p-99" value="" style="shape=tableRow;horizontal=0;startSize=0;swimlaneHead=0;swimlaneBody=0;fillColor=none;collapsible=0;dropTarget=0;points=[[0,0.5],[1,0.5]];portConstraint=eastwest;top=0;left=0;right=0;bottom=0;strokeWidth=5;fontSize=16;fontStyle=1" vertex="1" parent="bJpownEcDD49R5WzCh0p-92">
          <mxGeometry y="87" width="262" height="57" as="geometry" />
        </mxCell>
        <mxCell id="bJpownEcDD49R5WzCh0p-100" value="FK1" style="shape=partialRectangle;connectable=0;fillColor=none;top=0;left=0;bottom=0;right=0;editable=1;overflow=hidden;whiteSpace=wrap;html=1;strokeWidth=5;fontSize=16;fontStyle=1" vertex="1" parent="bJpownEcDD49R5WzCh0p-99">
          <mxGeometry width="30" height="57" as="geometry">
            <mxRectangle width="30" height="57" as="alternateBounds" />
          </mxGeometry>
        </mxCell>
        <mxCell id="bJpownEcDD49R5WzCh0p-101" value="&lt;font&gt;product_key&lt;/font&gt;" style="shape=partialRectangle;connectable=0;fillColor=none;top=0;left=0;bottom=0;right=0;align=left;spacingLeft=6;overflow=hidden;whiteSpace=wrap;html=1;strokeWidth=5;fontSize=16;fontStyle=1" vertex="1" parent="bJpownEcDD49R5WzCh0p-99">
          <mxGeometry x="30" width="232" height="57" as="geometry">
            <mxRectangle width="232" height="57" as="alternateBounds" />
          </mxGeometry>
        </mxCell>
        <mxCell id="bJpownEcDD49R5WzCh0p-102" value="" style="shape=tableRow;horizontal=0;startSize=0;swimlaneHead=0;swimlaneBody=0;fillColor=none;collapsible=0;dropTarget=0;points=[[0,0.5],[1,0.5]];portConstraint=eastwest;top=0;left=0;right=0;bottom=0;strokeWidth=5;fontSize=16;fontStyle=1" vertex="1" parent="bJpownEcDD49R5WzCh0p-92">
          <mxGeometry y="144" width="262" height="65" as="geometry" />
        </mxCell>
        <mxCell id="bJpownEcDD49R5WzCh0p-103" value="FK2" style="shape=partialRectangle;connectable=0;fillColor=none;top=0;left=0;bottom=0;right=0;editable=1;overflow=hidden;whiteSpace=wrap;html=1;strokeWidth=5;fontSize=16;fontStyle=1" vertex="1" parent="bJpownEcDD49R5WzCh0p-102">
          <mxGeometry width="30" height="65" as="geometry">
            <mxRectangle width="30" height="65" as="alternateBounds" />
          </mxGeometry>
        </mxCell>
        <mxCell id="bJpownEcDD49R5WzCh0p-104" value="&lt;font&gt;customer_key&lt;/font&gt;" style="shape=partialRectangle;connectable=0;fillColor=none;top=0;left=0;bottom=0;right=0;align=left;spacingLeft=6;overflow=hidden;whiteSpace=wrap;html=1;strokeWidth=5;fontSize=16;fontStyle=1" vertex="1" parent="bJpownEcDD49R5WzCh0p-102">
          <mxGeometry x="30" width="232" height="65" as="geometry">
            <mxRectangle width="232" height="65" as="alternateBounds" />
          </mxGeometry>
        </mxCell>
        <mxCell id="bJpownEcDD49R5WzCh0p-105" value="" style="shape=tableRow;horizontal=0;startSize=0;swimlaneHead=0;swimlaneBody=0;fillColor=none;collapsible=0;dropTarget=0;points=[[0,0.5],[1,0.5]];portConstraint=eastwest;top=0;left=0;right=0;bottom=0;strokeWidth=5;fontSize=16;fontStyle=1" vertex="1" parent="bJpownEcDD49R5WzCh0p-92">
          <mxGeometry y="209" width="262" height="65" as="geometry" />
        </mxCell>
        <mxCell id="bJpownEcDD49R5WzCh0p-106" value="" style="shape=partialRectangle;connectable=0;fillColor=none;top=0;left=0;bottom=0;right=0;editable=1;overflow=hidden;whiteSpace=wrap;html=1;strokeWidth=5;fontSize=16;fontStyle=1" vertex="1" parent="bJpownEcDD49R5WzCh0p-105">
          <mxGeometry width="30" height="65" as="geometry">
            <mxRectangle width="30" height="65" as="alternateBounds" />
          </mxGeometry>
        </mxCell>
        <mxCell id="bJpownEcDD49R5WzCh0p-107" value="sls_cust_id" style="shape=partialRectangle;connectable=0;fillColor=none;top=0;left=0;bottom=0;right=0;align=left;spacingLeft=6;overflow=hidden;whiteSpace=wrap;html=1;strokeWidth=5;fontSize=16;fontStyle=1" vertex="1" parent="bJpownEcDD49R5WzCh0p-105">
          <mxGeometry x="30" width="232" height="65" as="geometry">
            <mxRectangle width="232" height="65" as="alternateBounds" />
          </mxGeometry>
        </mxCell>
        <mxCell id="bJpownEcDD49R5WzCh0p-108" value="" style="shape=tableRow;horizontal=0;startSize=0;swimlaneHead=0;swimlaneBody=0;fillColor=none;collapsible=0;dropTarget=0;points=[[0,0.5],[1,0.5]];portConstraint=eastwest;top=0;left=0;right=0;bottom=0;strokeWidth=5;fontSize=16;fontStyle=1" vertex="1" parent="bJpownEcDD49R5WzCh0p-92">
          <mxGeometry y="274" width="262" height="65" as="geometry" />
        </mxCell>
        <mxCell id="bJpownEcDD49R5WzCh0p-109" value="" style="shape=partialRectangle;connectable=0;fillColor=none;top=0;left=0;bottom=0;right=0;editable=1;overflow=hidden;whiteSpace=wrap;html=1;strokeWidth=5;fontSize=16;fontStyle=1" vertex="1" parent="bJpownEcDD49R5WzCh0p-108">
          <mxGeometry width="30" height="65" as="geometry">
            <mxRectangle width="30" height="65" as="alternateBounds" />
          </mxGeometry>
        </mxCell>
        <mxCell id="bJpownEcDD49R5WzCh0p-110" value="&lt;font&gt;order_date&lt;/font&gt;" style="shape=partialRectangle;connectable=0;fillColor=none;top=0;left=0;bottom=0;right=0;align=left;spacingLeft=6;overflow=hidden;whiteSpace=wrap;html=1;strokeWidth=5;fontSize=16;fontStyle=1" vertex="1" parent="bJpownEcDD49R5WzCh0p-108">
          <mxGeometry x="30" width="232" height="65" as="geometry">
            <mxRectangle width="232" height="65" as="alternateBounds" />
          </mxGeometry>
        </mxCell>
        <mxCell id="bJpownEcDD49R5WzCh0p-111" value="" style="shape=tableRow;horizontal=0;startSize=0;swimlaneHead=0;swimlaneBody=0;fillColor=none;collapsible=0;dropTarget=0;points=[[0,0.5],[1,0.5]];portConstraint=eastwest;top=0;left=0;right=0;bottom=0;strokeWidth=5;fontSize=16;fontStyle=1" vertex="1" parent="bJpownEcDD49R5WzCh0p-92">
          <mxGeometry y="339" width="262" height="65" as="geometry" />
        </mxCell>
        <mxCell id="bJpownEcDD49R5WzCh0p-112" value="" style="shape=partialRectangle;connectable=0;fillColor=none;top=0;left=0;bottom=0;right=0;editable=1;overflow=hidden;whiteSpace=wrap;html=1;strokeWidth=5;fontSize=16;fontStyle=1" vertex="1" parent="bJpownEcDD49R5WzCh0p-111">
          <mxGeometry width="30" height="65" as="geometry">
            <mxRectangle width="30" height="65" as="alternateBounds" />
          </mxGeometry>
        </mxCell>
        <mxCell id="bJpownEcDD49R5WzCh0p-113" value="&lt;font&gt;shipping_date&lt;/font&gt;" style="shape=partialRectangle;connectable=0;fillColor=none;top=0;left=0;bottom=0;right=0;align=left;spacingLeft=6;overflow=hidden;whiteSpace=wrap;html=1;strokeWidth=5;fontSize=16;fontStyle=1" vertex="1" parent="bJpownEcDD49R5WzCh0p-111">
          <mxGeometry x="30" width="232" height="65" as="geometry">
            <mxRectangle width="232" height="65" as="alternateBounds" />
          </mxGeometry>
        </mxCell>
        <mxCell id="bJpownEcDD49R5WzCh0p-114" value="" style="shape=tableRow;horizontal=0;startSize=0;swimlaneHead=0;swimlaneBody=0;fillColor=none;collapsible=0;dropTarget=0;points=[[0,0.5],[1,0.5]];portConstraint=eastwest;top=0;left=0;right=0;bottom=0;strokeWidth=5;fontSize=16;fontStyle=1" vertex="1" parent="bJpownEcDD49R5WzCh0p-92">
          <mxGeometry y="404" width="262" height="65" as="geometry" />
        </mxCell>
        <mxCell id="bJpownEcDD49R5WzCh0p-115" value="" style="shape=partialRectangle;connectable=0;fillColor=none;top=0;left=0;bottom=0;right=0;editable=1;overflow=hidden;whiteSpace=wrap;html=1;strokeWidth=5;fontSize=16;fontStyle=1" vertex="1" parent="bJpownEcDD49R5WzCh0p-114">
          <mxGeometry width="30" height="65" as="geometry">
            <mxRectangle width="30" height="65" as="alternateBounds" />
          </mxGeometry>
        </mxCell>
        <mxCell id="bJpownEcDD49R5WzCh0p-116" value="due_date" style="shape=partialRectangle;connectable=0;fillColor=none;top=0;left=0;bottom=0;right=0;align=left;spacingLeft=6;overflow=hidden;whiteSpace=wrap;html=1;strokeWidth=5;fontSize=16;fontStyle=1" vertex="1" parent="bJpownEcDD49R5WzCh0p-114">
          <mxGeometry x="30" width="232" height="65" as="geometry">
            <mxRectangle width="232" height="65" as="alternateBounds" />
          </mxGeometry>
        </mxCell>
        <mxCell id="bJpownEcDD49R5WzCh0p-117" value="" style="shape=tableRow;horizontal=0;startSize=0;swimlaneHead=0;swimlaneBody=0;fillColor=none;collapsible=0;dropTarget=0;points=[[0,0.5],[1,0.5]];portConstraint=eastwest;top=0;left=0;right=0;bottom=0;strokeWidth=5;fontSize=16;fontStyle=1" vertex="1" parent="bJpownEcDD49R5WzCh0p-92">
          <mxGeometry y="469" width="262" height="65" as="geometry" />
        </mxCell>
        <mxCell id="bJpownEcDD49R5WzCh0p-118" value="" style="shape=partialRectangle;connectable=0;fillColor=none;top=0;left=0;bottom=0;right=0;editable=1;overflow=hidden;whiteSpace=wrap;html=1;strokeWidth=5;fontSize=16;fontStyle=1" vertex="1" parent="bJpownEcDD49R5WzCh0p-117">
          <mxGeometry width="30" height="65" as="geometry">
            <mxRectangle width="30" height="65" as="alternateBounds" />
          </mxGeometry>
        </mxCell>
        <mxCell id="bJpownEcDD49R5WzCh0p-119" value="sales_amount" style="shape=partialRectangle;connectable=0;fillColor=none;top=0;left=0;bottom=0;right=0;align=left;spacingLeft=6;overflow=hidden;whiteSpace=wrap;html=1;strokeWidth=5;fontSize=16;fontStyle=1" vertex="1" parent="bJpownEcDD49R5WzCh0p-117">
          <mxGeometry x="30" width="232" height="65" as="geometry">
            <mxRectangle width="232" height="65" as="alternateBounds" />
          </mxGeometry>
        </mxCell>
        <mxCell id="bJpownEcDD49R5WzCh0p-120" value="" style="shape=tableRow;horizontal=0;startSize=0;swimlaneHead=0;swimlaneBody=0;fillColor=none;collapsible=0;dropTarget=0;points=[[0,0.5],[1,0.5]];portConstraint=eastwest;top=0;left=0;right=0;bottom=0;strokeWidth=5;fontSize=16;fontStyle=1" vertex="1" parent="bJpownEcDD49R5WzCh0p-92">
          <mxGeometry y="534" width="262" height="65" as="geometry" />
        </mxCell>
        <mxCell id="bJpownEcDD49R5WzCh0p-121" value="" style="shape=partialRectangle;connectable=0;fillColor=none;top=0;left=0;bottom=0;right=0;editable=1;overflow=hidden;whiteSpace=wrap;html=1;strokeWidth=5;fontSize=16;fontStyle=1" vertex="1" parent="bJpownEcDD49R5WzCh0p-120">
          <mxGeometry width="30" height="65" as="geometry">
            <mxRectangle width="30" height="65" as="alternateBounds" />
          </mxGeometry>
        </mxCell>
        <mxCell id="bJpownEcDD49R5WzCh0p-122" value="quantity" style="shape=partialRectangle;connectable=0;fillColor=none;top=0;left=0;bottom=0;right=0;align=left;spacingLeft=6;overflow=hidden;whiteSpace=wrap;html=1;strokeWidth=5;fontSize=16;fontStyle=1" vertex="1" parent="bJpownEcDD49R5WzCh0p-120">
          <mxGeometry x="30" width="232" height="65" as="geometry">
            <mxRectangle width="232" height="65" as="alternateBounds" />
          </mxGeometry>
        </mxCell>
        <mxCell id="bJpownEcDD49R5WzCh0p-123" value="" style="shape=tableRow;horizontal=0;startSize=0;swimlaneHead=0;swimlaneBody=0;fillColor=none;collapsible=0;dropTarget=0;points=[[0,0.5],[1,0.5]];portConstraint=eastwest;top=0;left=0;right=0;bottom=0;strokeWidth=5;fontSize=16;fontStyle=1" vertex="1" parent="bJpownEcDD49R5WzCh0p-92">
          <mxGeometry y="599" width="262" height="65" as="geometry" />
        </mxCell>
        <mxCell id="bJpownEcDD49R5WzCh0p-124" value="" style="shape=partialRectangle;connectable=0;fillColor=none;top=0;left=0;bottom=0;right=0;editable=1;overflow=hidden;whiteSpace=wrap;html=1;strokeWidth=5;fontSize=16;fontStyle=1" vertex="1" parent="bJpownEcDD49R5WzCh0p-123">
          <mxGeometry width="30" height="65" as="geometry">
            <mxRectangle width="30" height="65" as="alternateBounds" />
          </mxGeometry>
        </mxCell>
        <mxCell id="bJpownEcDD49R5WzCh0p-125" value="price" style="shape=partialRectangle;connectable=0;fillColor=none;top=0;left=0;bottom=0;right=0;align=left;spacingLeft=6;overflow=hidden;whiteSpace=wrap;html=1;strokeWidth=5;fontSize=16;fontStyle=1" vertex="1" parent="bJpownEcDD49R5WzCh0p-123">
          <mxGeometry x="30" width="232" height="65" as="geometry">
            <mxRectangle width="232" height="65" as="alternateBounds" />
          </mxGeometry>
        </mxCell>
        <mxCell id="bJpownEcDD49R5WzCh0p-127" value="" style="edgeStyle=entityRelationEdgeStyle;fontSize=12;html=1;endArrow=ERzeroToMany;startArrow=ERmandOne;rounded=0;startSize=8;endSize=8;curved=1;entryX=0;entryY=0.5;entryDx=0;entryDy=0;" edge="1" parent="1" source="bJpownEcDD49R5WzCh0p-3" target="bJpownEcDD49R5WzCh0p-102">
          <mxGeometry width="100" height="100" relative="1" as="geometry">
            <mxPoint x="-691" y="-978" as="sourcePoint" />
            <mxPoint x="-591" y="-1078" as="targetPoint" />
          </mxGeometry>
        </mxCell>
        <mxCell id="bJpownEcDD49R5WzCh0p-128" value="" style="edgeStyle=entityRelationEdgeStyle;fontSize=12;html=1;endArrow=ERzeroToMany;startArrow=ERmandOne;rounded=0;startSize=8;endSize=8;curved=1;entryX=0.986;entryY=0.006;entryDx=0;entryDy=0;entryPerimeter=0;" edge="1" parent="1" source="bJpownEcDD49R5WzCh0p-59" target="bJpownEcDD49R5WzCh0p-99">
          <mxGeometry width="100" height="100" relative="1" as="geometry">
            <mxPoint x="-226" y="-1311" as="sourcePoint" />
            <mxPoint x="-274" y="-1223" as="targetPoint" />
            <Array as="points">
              <mxPoint x="-255" y="-1222" />
            </Array>
          </mxGeometry>
        </mxCell>
        <mxCell id="bJpownEcDD49R5WzCh0p-129" value="&lt;h1 style=&quot;margin-top: 0px;&quot;&gt;&lt;font style=&quot;font-size: 16px;&quot;&gt;Sales Calculation&lt;/font&gt;&lt;/h1&gt;&lt;div&gt;Sales = Quantity * Price&lt;/div&gt;" style="text;html=1;whiteSpace=wrap;overflow=hidden;rounded=0;" vertex="1" parent="1">
          <mxGeometry x="-449" y="-593" width="180" height="120" as="geometry" />
        </mxCell>
        <mxCell id="bJpownEcDD49R5WzCh0p-130" value="" style="endArrow=none;dashed=1;html=1;dashPattern=1 3;strokeWidth=2;rounded=0;fontSize=12;startSize=8;endSize=8;curved=1;entryX=0.439;entryY=0.019;entryDx=0;entryDy=0;entryPerimeter=0;" edge="1" parent="1" source="bJpownEcDD49R5WzCh0p-117" target="bJpownEcDD49R5WzCh0p-129">
          <mxGeometry width="50" height="50" relative="1" as="geometry">
            <mxPoint x="-510" y="-530" as="sourcePoint" />
            <mxPoint x="-460" y="-580" as="targetPoint" />
          </mxGeometry>
        </mxCell>
      </root>
    </mxGraphModel>
  </diagram>
</mxfile>
